<?xml version="1.0" encoding="UTF-8" standalone="no"?>
<!DOCTYPE svg PUBLIC "-//W3C//DTD SVG 1.1//EN"
 "http://www.w3.org/Graphics/SVG/1.1/DTD/svg11.dtd">
<!-- Generated by graphviz version 14.1.2 (0)
 -->
<!-- Title: snakemake_dag Pages: 1 -->
<svg width="1446pt" height="692pt"
 viewBox="0.00 0.00 1446.00 692.00" xmlns="http://www.w3.org/2000/svg" xmlns:xlink="http://www.w3.org/1999/xlink">
<g id="graph0" class="graph" transform="scale(1 1) rotate(0) translate(4 688)">
<title>snakemake_dag</title>
<polygon fill="white" stroke="none" points="-4,4 -4,-688 1442,-688 1442,4 -4,4"/>
<!-- 0 -->
<g id="node1" class="node">
<title>0</title>
<path fill="none" stroke="#56d873" stroke-width="2" d="M764,-36C764,-36 734,-36 734,-36 728,-36 722,-30 722,-24 722,-24 722,-12 722,-12 722,-6 728,0 734,0 734,0 764,0 764,0 770,0 776,-6 776,-12 776,-12 776,-24 776,-24 776,-30 770,-36 764,-36"/>
<text xml:space="preserve" text-anchor="middle" x="749" y="-14.12" font-family="sans" font-size="10.00">all</text>
</g>
<!-- 1 -->
<g id="node2" class="node">
<title>1</title>
<path fill="none" stroke="#d8cb56" stroke-width="2" d="M575.5,-612C575.5,-612 496.5,-612 496.5,-612 490.5,-612 484.5,-606 484.5,-600 484.5,-600 484.5,-588 484.5,-588 484.5,-582 490.5,-576 496.5,-576 496.5,-576 575.5,-576 575.5,-576 581.5,-576 587.5,-582 587.5,-588 587.5,-588 587.5,-600 587.5,-600 587.5,-606 581.5,-612 575.5,-612"/>
<text xml:space="preserve" text-anchor="middle" x="536" y="-590.12" font-family="sans" font-size="10.00">r01_02_raw_multiqc</text>
</g>
<!-- 1&#45;&gt;0 -->
<g id="edge1" class="edge">
<title>1&#45;&gt;0</title>
<path fill="none" stroke="grey" stroke-width="2" d="M483.63,-590.27C348.76,-581.83 0,-550.39 0,-451 0,-451 0,-451 0,-161 0,-116.68 8.14,-96.62 45,-72 100.23,-35.11 566.64,-22.69 708.34,-19.75"/>
<polygon fill="grey" stroke="grey" stroke-width="2" points="708.06,-23.26 717.99,-19.56 707.92,-16.26 708.06,-23.26"/>
</g>
<!-- 9 -->
<g id="node10" class="node">
<title>9</title>
<path fill="none" stroke="#56d8a9" stroke-width="2" d="M253,-540C253,-540 195,-540 195,-540 189,-540 183,-534 183,-528 183,-528 183,-516 183,-516 183,-510 189,-504 195,-504 195,-504 253,-504 253,-504 259,-504 265,-510 265,-516 265,-516 265,-528 265,-528 265,-534 259,-540 253,-540"/>
<text xml:space="preserve" text-anchor="middle" x="224" y="-523.75" font-family="sans" font-size="10.00">r02_01_fastp</text>
<text xml:space="preserve" text-anchor="middle" x="224" y="-512.5" font-family="sans" font-size="10.00">sample: LD_01</text>
</g>
<!-- 1&#45;&gt;9 -->
<g id="edge31" class="edge">
<title>1&#45;&gt;9</title>
<path fill="none" stroke="grey" stroke-width="2" d="M483.78,-581.28C426.85,-568.51 336.17,-548.17 278.4,-535.2"/>
<polygon fill="grey" stroke="grey" stroke-width="2" points="279.36,-531.83 268.84,-533.06 277.83,-538.66 279.36,-531.83"/>
</g>
<!-- 11 -->
<g id="node12" class="node">
<title>11</title>
<path fill="none" stroke="#56d8a9" stroke-width="2" d="M454,-540C454,-540 396,-540 396,-540 390,-540 384,-534 384,-528 384,-528 384,-516 384,-516 384,-510 390,-504 396,-504 396,-504 454,-504 454,-504 460,-504 466,-510 466,-516 466,-516 466,-528 466,-528 466,-534 460,-540 454,-540"/>
<text xml:space="preserve" text-anchor="middle" x="425" y="-523.75" font-family="sans" font-size="10.00">r02_01_fastp</text>
<text xml:space="preserve" text-anchor="middle" x="425" y="-512.5" font-family="sans" font-size="10.00">sample: LR_02</text>
</g>
<!-- 1&#45;&gt;11 -->
<g id="edge33" class="edge">
<title>1&#45;&gt;11</title>
<path fill="none" stroke="grey" stroke-width="2" d="M507.7,-575.15C494.39,-566.76 478.31,-556.62 463.88,-547.52"/>
<polygon fill="grey" stroke="grey" stroke-width="2" points="466.13,-544.8 455.81,-542.43 462.4,-550.72 466.13,-544.8"/>
</g>
<!-- 13 -->
<g id="node14" class="node">
<title>13</title>
<path fill="none" stroke="#56d8a9" stroke-width="2" d="M651.62,-540C651.62,-540 594.38,-540 594.38,-540 588.38,-540 582.38,-534 582.38,-528 582.38,-528 582.38,-516 582.38,-516 582.38,-510 588.38,-504 594.38,-504 594.38,-504 651.62,-504 651.62,-504 657.62,-504 663.62,-510 663.62,-516 663.62,-516 663.62,-528 663.62,-528 663.62,-534 657.62,-540 651.62,-540"/>
<text xml:space="preserve" text-anchor="middle" x="623" y="-523.75" font-family="sans" font-size="10.00">r02_01_fastp</text>
<text xml:space="preserve" text-anchor="middle" x="623" y="-512.5" font-family="sans" font-size="10.00">sample: LA_03</text>
</g>
<!-- 1&#45;&gt;13 -->
<g id="edge35" class="edge">
<title>1&#45;&gt;13</title>
<path fill="none" stroke="grey" stroke-width="2" d="M557.95,-575.34C567.87,-567.36 579.79,-557.77 590.7,-548.99"/>
<polygon fill="grey" stroke="grey" stroke-width="2" points="592.8,-551.8 598.39,-542.8 588.41,-546.34 592.8,-551.8"/>
</g>
<!-- 15 -->
<g id="node16" class="node">
<title>15</title>
<path fill="none" stroke="#56d8a9" stroke-width="2" d="M881,-540C881,-540 823,-540 823,-540 817,-540 811,-534 811,-528 811,-528 811,-516 811,-516 811,-510 817,-504 823,-504 823,-504 881,-504 881,-504 887,-504 893,-510 893,-516 893,-516 893,-528 893,-528 893,-534 887,-540 881,-540"/>
<text xml:space="preserve" text-anchor="middle" x="852" y="-523.75" font-family="sans" font-size="10.00">r02_01_fastp</text>
<text xml:space="preserve" text-anchor="middle" x="852" y="-512.5" font-family="sans" font-size="10.00">sample: LH_04</text>
</g>
<!-- 1&#45;&gt;15 -->
<g id="edge37" class="edge">
<title>1&#45;&gt;15</title>
<path fill="none" stroke="grey" stroke-width="2" d="M588.18,-581.44C646.04,-568.62 738.93,-548.05 797.64,-535.04"/>
<polygon fill="grey" stroke="grey" stroke-width="2" points="798.39,-538.46 807.39,-532.88 796.87,-531.63 798.39,-538.46"/>
</g>
<!-- 17 -->
<g id="node18" class="node">
<title>17</title>
<path fill="none" stroke="#56d8a9" stroke-width="2" d="M1237.62,-540C1237.62,-540 1180.38,-540 1180.38,-540 1174.38,-540 1168.38,-534 1168.38,-528 1168.38,-528 1168.38,-516 1168.38,-516 1168.38,-510 1174.38,-504 1180.38,-504 1180.38,-504 1237.62,-504 1237.62,-504 1243.62,-504 1249.62,-510 1249.62,-516 1249.62,-516 1249.62,-528 1249.62,-528 1249.62,-534 1243.62,-540 1237.62,-540"/>
<text xml:space="preserve" text-anchor="middle" x="1209" y="-523.75" font-family="sans" font-size="10.00">r02_01_fastp</text>
<text xml:space="preserve" text-anchor="middle" x="1209" y="-512.5" font-family="sans" font-size="10.00">sample: LB_05</text>
</g>
<!-- 1&#45;&gt;17 -->
<g id="edge39" class="edge">
<title>1&#45;&gt;17</title>
<path fill="none" stroke="grey" stroke-width="2" d="M588.25,-587.57C713.08,-574.58 1027.68,-541.86 1154.63,-528.65"/>
<polygon fill="grey" stroke="grey" stroke-width="2" points="1154.79,-532.16 1164.38,-527.64 1154.07,-525.19 1154.79,-532.16"/>
</g>
<!-- 2 -->
<g id="node3" class="node">
<title>2</title>
<path fill="none" stroke="#5692d8" stroke-width="2" d="M339.25,-684C339.25,-684 264.75,-684 264.75,-684 258.75,-684 252.75,-678 252.75,-672 252.75,-672 252.75,-660 252.75,-660 252.75,-654 258.75,-648 264.75,-648 264.75,-648 339.25,-648 339.25,-648 345.25,-648 351.25,-654 351.25,-660 351.25,-660 351.25,-672 351.25,-672 351.25,-678 345.25,-684 339.25,-684"/>
<text xml:space="preserve" text-anchor="middle" x="302" y="-667.75" font-family="sans" font-size="10.00">r01_01_raw_fastqc</text>
<text xml:space="preserve" text-anchor="middle" x="302" y="-656.5" font-family="sans" font-size="10.00">sample: LD_01</text>
</g>
<!-- 2&#45;&gt;1 -->
<g id="edge20" class="edge">
<title>2&#45;&gt;1</title>
<path fill="none" stroke="grey" stroke-width="2" d="M352.2,-649.98C387.07,-639.55 433.84,-625.56 471.48,-614.3"/>
<polygon fill="grey" stroke="grey" stroke-width="2" points="472.38,-617.68 480.96,-611.47 470.37,-610.98 472.38,-617.68"/>
</g>
<!-- 3 -->
<g id="node4" class="node">
<title>3</title>
<path fill="none" stroke="#5692d8" stroke-width="2" d="M456.25,-684C456.25,-684 381.75,-684 381.75,-684 375.75,-684 369.75,-678 369.75,-672 369.75,-672 369.75,-660 369.75,-660 369.75,-654 375.75,-648 381.75,-648 381.75,-648 456.25,-648 456.25,-648 462.25,-648 468.25,-654 468.25,-660 468.25,-660 468.25,-672 468.25,-672 468.25,-678 462.25,-684 456.25,-684"/>
<text xml:space="preserve" text-anchor="middle" x="419" y="-667.75" font-family="sans" font-size="10.00">r01_01_raw_fastqc</text>
<text xml:space="preserve" text-anchor="middle" x="419" y="-656.5" font-family="sans" font-size="10.00">sample: LR_02</text>
</g>
<!-- 3&#45;&gt;1 -->
<g id="edge21" class="edge">
<title>3&#45;&gt;1</title>
<path fill="none" stroke="grey" stroke-width="2" d="M448.83,-647.15C462.99,-638.68 480.14,-628.42 495.46,-619.25"/>
<polygon fill="grey" stroke="grey" stroke-width="2" points="496.85,-622.5 503.63,-614.37 493.25,-616.5 496.85,-622.5"/>
</g>
<!-- 4 -->
<g id="node5" class="node">
<title>4</title>
<path fill="none" stroke="#5692d8" stroke-width="2" d="M573.25,-684C573.25,-684 498.75,-684 498.75,-684 492.75,-684 486.75,-678 486.75,-672 486.75,-672 486.75,-660 486.75,-660 486.75,-654 492.75,-648 498.75,-648 498.75,-648 573.25,-648 573.25,-648 579.25,-648 585.25,-654 585.25,-660 585.25,-660 585.25,-672 585.25,-672 585.25,-678 579.25,-684 573.25,-684"/>
<text xml:space="preserve" text-anchor="middle" x="536" y="-667.75" font-family="sans" font-size="10.00">r01_01_raw_fastqc</text>
<text xml:space="preserve" text-anchor="middle" x="536" y="-656.5" font-family="sans" font-size="10.00">sample: LA_03</text>
</g>
<!-- 4&#45;&gt;1 -->
<g id="edge22" class="edge">
<title>4&#45;&gt;1</title>
<path fill="none" stroke="grey" stroke-width="2" d="M536,-647.34C536,-640.75 536,-633.08 536,-625.67"/>
<polygon fill="grey" stroke="grey" stroke-width="2" points="539.5,-625.93 536,-615.93 532.5,-625.93 539.5,-625.93"/>
</g>
<!-- 5 -->
<g id="node6" class="node">
<title>5</title>
<path fill="none" stroke="#5692d8" stroke-width="2" d="M690.25,-684C690.25,-684 615.75,-684 615.75,-684 609.75,-684 603.75,-678 603.75,-672 603.75,-672 603.75,-660 603.75,-660 603.75,-654 609.75,-648 615.75,-648 615.75,-648 690.25,-648 690.25,-648 696.25,-648 702.25,-654 702.25,-660 702.25,-660 702.25,-672 702.25,-672 702.25,-678 696.25,-684 690.25,-684"/>
<text xml:space="preserve" text-anchor="middle" x="653" y="-667.75" font-family="sans" font-size="10.00">r01_01_raw_fastqc</text>
<text xml:space="preserve" text-anchor="middle" x="653" y="-656.5" font-family="sans" font-size="10.00">sample: LH_04</text>
</g>
<!-- 5&#45;&gt;1 -->
<g id="edge23" class="edge">
<title>5&#45;&gt;1</title>
<path fill="none" stroke="grey" stroke-width="2" d="M623.17,-647.15C609.01,-638.68 591.86,-628.42 576.54,-619.25"/>
<polygon fill="grey" stroke="grey" stroke-width="2" points="578.75,-616.5 568.37,-614.37 575.15,-622.5 578.75,-616.5"/>
</g>
<!-- 6 -->
<g id="node7" class="node">
<title>6</title>
<path fill="none" stroke="#5692d8" stroke-width="2" d="M807.25,-684C807.25,-684 732.75,-684 732.75,-684 726.75,-684 720.75,-678 720.75,-672 720.75,-672 720.75,-660 720.75,-660 720.75,-654 726.75,-648 732.75,-648 732.75,-648 807.25,-648 807.25,-648 813.25,-648 819.25,-654 819.25,-660 819.25,-660 819.25,-672 819.25,-672 819.25,-678 813.25,-684 807.25,-684"/>
<text xml:space="preserve" text-anchor="middle" x="770" y="-667.75" font-family="sans" font-size="10.00">r01_01_raw_fastqc</text>
<text xml:space="preserve" text-anchor="middle" x="770" y="-656.5" font-family="sans" font-size="10.00">sample: LB_05</text>
</g>
<!-- 6&#45;&gt;1 -->
<g id="edge24" class="edge">
<title>6&#45;&gt;1</title>
<path fill="none" stroke="grey" stroke-width="2" d="M719.8,-649.98C684.93,-639.55 638.16,-625.56 600.52,-614.3"/>
<polygon fill="grey" stroke="grey" stroke-width="2" points="601.63,-610.98 591.04,-611.47 599.62,-617.68 601.63,-610.98"/>
</g>
<!-- 7 -->
<g id="node8" class="node">
<title>7</title>
<path fill="none" stroke="#70d856" stroke-width="2" d="M654.25,-396C654.25,-396 555.75,-396 555.75,-396 549.75,-396 543.75,-390 543.75,-384 543.75,-384 543.75,-372 543.75,-372 543.75,-366 549.75,-360 555.75,-360 555.75,-360 654.25,-360 654.25,-360 660.25,-360 666.25,-366 666.25,-372 666.25,-372 666.25,-384 666.25,-384 666.25,-390 660.25,-396 654.25,-396"/>
<text xml:space="preserve" text-anchor="middle" x="605" y="-374.12" font-family="sans" font-size="10.00">r02_03_trimmed_multiqc</text>
</g>
<!-- 7&#45;&gt;0 -->
<g id="edge2" class="edge">
<title>7&#45;&gt;0</title>
<path fill="none" stroke="grey" stroke-width="2" d="M599.28,-359.08C589.74,-329.29 569.85,-267.74 552,-216 546.45,-199.92 541.93,-196.76 539,-180 536.24,-164.24 537.47,-159.93 539,-144 542.13,-111.55 530.79,-95.87 553,-72 573.94,-49.49 657.33,-33.05 708.35,-24.86"/>
<polygon fill="grey" stroke="grey" stroke-width="2" points="708.85,-28.32 718.19,-23.33 707.77,-21.41 708.85,-28.32"/>
</g>
<!-- 24 -->
<g id="node25" class="node">
<title>24</title>
<path fill="none" stroke="#5673d8" stroke-width="2" d="M172,-324C172,-324 114,-324 114,-324 108,-324 102,-318 102,-312 102,-312 102,-300 102,-300 102,-294 108,-288 114,-288 114,-288 172,-288 172,-288 178,-288 184,-294 184,-300 184,-300 184,-312 184,-312 184,-318 178,-324 172,-324"/>
<text xml:space="preserve" text-anchor="middle" x="143" y="-302.12" font-family="sans" font-size="10.00">r04_01_spades</text>
</g>
<!-- 7&#45;&gt;24 -->
<g id="edge47" class="edge">
<title>7&#45;&gt;24</title>
<path fill="none" stroke="grey" stroke-width="2" d="M543.17,-367.63C452.31,-353.87 284.15,-328.39 197.61,-315.27"/>
<polygon fill="grey" stroke="grey" stroke-width="2" points="198.35,-311.85 187.94,-313.81 197.3,-318.77 198.35,-311.85"/>
</g>
<!-- 26 -->
<g id="node27" class="node">
<title>26</title>
<path fill="none" stroke="#5673d8" stroke-width="2" d="M381,-324C381,-324 323,-324 323,-324 317,-324 311,-318 311,-312 311,-312 311,-300 311,-300 311,-294 317,-288 323,-288 323,-288 381,-288 381,-288 387,-288 393,-294 393,-300 393,-300 393,-312 393,-312 393,-318 387,-324 381,-324"/>
<text xml:space="preserve" text-anchor="middle" x="352" y="-302.12" font-family="sans" font-size="10.00">r04_01_spades</text>
</g>
<!-- 7&#45;&gt;26 -->
<g id="edge51" class="edge">
<title>7&#45;&gt;26</title>
<path fill="none" stroke="grey" stroke-width="2" d="M542.79,-359.79C500.93,-348.21 446.3,-333.09 406.22,-322"/>
<polygon fill="grey" stroke="grey" stroke-width="2" points="407.25,-318.65 396.68,-319.36 405.38,-325.4 407.25,-318.65"/>
</g>
<!-- 28 -->
<g id="node29" class="node">
<title>28</title>
<path fill="none" stroke="#5673d8" stroke-width="2" d="M840,-324C840,-324 782,-324 782,-324 776,-324 770,-318 770,-312 770,-312 770,-300 770,-300 770,-294 776,-288 782,-288 782,-288 840,-288 840,-288 846,-288 852,-294 852,-300 852,-300 852,-312 852,-312 852,-318 846,-324 840,-324"/>
<text xml:space="preserve" text-anchor="middle" x="811" y="-302.12" font-family="sans" font-size="10.00">r04_01_spades</text>
</g>
<!-- 7&#45;&gt;28 -->
<g id="edge55" class="edge">
<title>7&#45;&gt;28</title>
<path fill="none" stroke="grey" stroke-width="2" d="M657.78,-359.06C688.17,-348.74 726.27,-335.79 756.88,-325.39"/>
<polygon fill="grey" stroke="grey" stroke-width="2" points="757.85,-328.76 766.2,-322.22 755.6,-322.13 757.85,-328.76"/>
</g>
<!-- 30 -->
<g id="node31" class="node">
<title>30</title>
<path fill="none" stroke="#5673d8" stroke-width="2" d="M1158,-324C1158,-324 1100,-324 1100,-324 1094,-324 1088,-318 1088,-312 1088,-312 1088,-300 1088,-300 1088,-294 1094,-288 1100,-288 1100,-288 1158,-288 1158,-288 1164,-288 1170,-294 1170,-300 1170,-300 1170,-312 1170,-312 1170,-318 1164,-324 1158,-324"/>
<text xml:space="preserve" text-anchor="middle" x="1129" y="-302.12" font-family="sans" font-size="10.00">r04_01_spades</text>
</g>
<!-- 7&#45;&gt;30 -->
<g id="edge59" class="edge">
<title>7&#45;&gt;30</title>
<path fill="none" stroke="grey" stroke-width="2" d="M667.17,-368.7C770.58,-354.88 976.26,-327.4 1074.42,-314.29"/>
<polygon fill="grey" stroke="grey" stroke-width="2" points="1074.8,-317.77 1084.25,-312.98 1073.87,-310.83 1074.8,-317.77"/>
</g>
<!-- 32 -->
<g id="node33" class="node">
<title>32</title>
<path fill="none" stroke="#5673d8" stroke-width="2" d="M1284,-324C1284,-324 1226,-324 1226,-324 1220,-324 1214,-318 1214,-312 1214,-312 1214,-300 1214,-300 1214,-294 1220,-288 1226,-288 1226,-288 1284,-288 1284,-288 1290,-288 1296,-294 1296,-300 1296,-300 1296,-312 1296,-312 1296,-318 1290,-324 1284,-324"/>
<text xml:space="preserve" text-anchor="middle" x="1255" y="-302.12" font-family="sans" font-size="10.00">r04_01_spades</text>
</g>
<!-- 7&#45;&gt;32 -->
<g id="edge63" class="edge">
<title>7&#45;&gt;32</title>
<path fill="none" stroke="grey" stroke-width="2" d="M666.9,-372.29C794.2,-362.45 1081.62,-339.32 1179,-324 1186.1,-322.88 1193.53,-321.5 1200.84,-320"/>
<polygon fill="grey" stroke="grey" stroke-width="2" points="1201.37,-323.47 1210.41,-317.95 1199.9,-316.62 1201.37,-323.47"/>
</g>
<!-- 8 -->
<g id="node9" class="node">
<title>8</title>
<path fill="none" stroke="#8fd856" stroke-width="2" d="M342,-468C342,-468 248,-468 248,-468 242,-468 236,-462 236,-456 236,-456 236,-444 236,-444 236,-438 242,-432 248,-432 248,-432 342,-432 342,-432 348,-432 354,-438 354,-444 354,-444 354,-456 354,-456 354,-462 348,-468 342,-468"/>
<text xml:space="preserve" text-anchor="middle" x="295" y="-446.12" font-family="sans" font-size="10.00">r02_02_trimmed_fastqc</text>
</g>
<!-- 8&#45;&gt;7 -->
<g id="edge25" class="edge">
<title>8&#45;&gt;7</title>
<path fill="none" stroke="grey" stroke-width="2" d="M354.77,-435.5C404.78,-424.21 476.37,-408.05 530.18,-395.9"/>
<polygon fill="grey" stroke="grey" stroke-width="2" points="530.82,-399.34 539.8,-393.72 529.28,-392.51 530.82,-399.34"/>
</g>
<!-- 9&#45;&gt;8 -->
<g id="edge30" class="edge">
<title>9&#45;&gt;8</title>
<path fill="none" stroke="grey" stroke-width="2" d="M241.92,-503.34C249.76,-495.6 259.14,-486.36 267.81,-477.81"/>
<polygon fill="grey" stroke="grey" stroke-width="2" points="270.02,-480.54 274.69,-471.03 265.11,-475.56 270.02,-480.54"/>
</g>
<!-- 18 -->
<g id="node19" class="node">
<title>18</title>
<path fill="none" stroke="#afd856" stroke-width="2" d="M126.5,-396C126.5,-396 65.5,-396 65.5,-396 59.5,-396 53.5,-390 53.5,-384 53.5,-384 53.5,-372 53.5,-372 53.5,-366 59.5,-360 65.5,-360 65.5,-360 126.5,-360 126.5,-360 132.5,-360 138.5,-366 138.5,-372 138.5,-372 138.5,-384 138.5,-384 138.5,-390 132.5,-396 126.5,-396"/>
<text xml:space="preserve" text-anchor="middle" x="96" y="-374.12" font-family="sans" font-size="10.00">r03_01_kraken2</text>
</g>
<!-- 9&#45;&gt;18 -->
<g id="edge40" class="edge">
<title>9&#45;&gt;18</title>
<path fill="none" stroke="grey" stroke-width="2" d="M195.48,-503.22C181.69,-493.79 165.47,-481.4 153,-468 136.18,-449.93 121.3,-426.28 110.96,-407.89"/>
<polygon fill="grey" stroke="grey" stroke-width="2" points="114.16,-406.45 106.3,-399.35 108.01,-409.8 114.16,-406.45"/>
</g>
<!-- 9&#45;&gt;24 -->
<g id="edge46" class="edge">
<title>9&#45;&gt;24</title>
<path fill="none" stroke="grey" stroke-width="2" d="M217.23,-503.12C203.36,-466.46 171.54,-382.41 154.42,-337.16"/>
<polygon fill="grey" stroke="grey" stroke-width="2" points="157.69,-335.92 150.88,-327.81 151.14,-338.4 157.69,-335.92"/>
</g>
<!-- 10 -->
<g id="node11" class="node">
<title>10</title>
<path fill="none" stroke="#8fd856" stroke-width="2" d="M516,-468C516,-468 422,-468 422,-468 416,-468 410,-462 410,-456 410,-456 410,-444 410,-444 410,-438 416,-432 422,-432 422,-432 516,-432 516,-432 522,-432 528,-438 528,-444 528,-444 528,-456 528,-456 528,-462 522,-468 516,-468"/>
<text xml:space="preserve" text-anchor="middle" x="469" y="-446.12" font-family="sans" font-size="10.00">r02_02_trimmed_fastqc</text>
</g>
<!-- 10&#45;&gt;7 -->
<g id="edge26" class="edge">
<title>10&#45;&gt;7</title>
<path fill="none" stroke="grey" stroke-width="2" d="M503.67,-431.15C520.46,-422.52 540.84,-412.02 558.91,-402.72"/>
<polygon fill="grey" stroke="grey" stroke-width="2" points="560.41,-405.89 567.7,-398.2 557.21,-399.66 560.41,-405.89"/>
</g>
<!-- 11&#45;&gt;10 -->
<g id="edge32" class="edge">
<title>11&#45;&gt;10</title>
<path fill="none" stroke="grey" stroke-width="2" d="M436.1,-503.34C440.6,-496.18 445.91,-487.73 450.94,-479.73"/>
<polygon fill="grey" stroke="grey" stroke-width="2" points="453.78,-481.79 456.14,-471.46 447.85,-478.07 453.78,-481.79"/>
</g>
<!-- 19 -->
<g id="node20" class="node">
<title>19</title>
<path fill="none" stroke="#afd856" stroke-width="2" d="M268.5,-396C268.5,-396 207.5,-396 207.5,-396 201.5,-396 195.5,-390 195.5,-384 195.5,-384 195.5,-372 195.5,-372 195.5,-366 201.5,-360 207.5,-360 207.5,-360 268.5,-360 268.5,-360 274.5,-360 280.5,-366 280.5,-372 280.5,-372 280.5,-384 280.5,-384 280.5,-390 274.5,-396 268.5,-396"/>
<text xml:space="preserve" text-anchor="middle" x="238" y="-374.12" font-family="sans" font-size="10.00">r03_01_kraken2</text>
</g>
<!-- 11&#45;&gt;19 -->
<g id="edge41" class="edge">
<title>11&#45;&gt;19</title>
<path fill="none" stroke="grey" stroke-width="2" d="M383.32,-515.79C331.03,-508.31 245.9,-492.63 227,-468 214.21,-451.34 217.95,-427.53 224.36,-408.73"/>
<polygon fill="grey" stroke="grey" stroke-width="2" points="227.59,-410.07 227.95,-399.49 221.06,-407.54 227.59,-410.07"/>
</g>
<!-- 11&#45;&gt;26 -->
<g id="edge50" class="edge">
<title>11&#45;&gt;26</title>
<path fill="none" stroke="grey" stroke-width="2" d="M416.19,-503.09C411.37,-492.94 405.49,-479.91 401,-468 384.07,-423.06 368.68,-369.47 359.83,-336.85"/>
<polygon fill="grey" stroke="grey" stroke-width="2" points="363.31,-336.32 357.35,-327.56 356.55,-338.13 363.31,-336.32"/>
</g>
<!-- 12 -->
<g id="node13" class="node">
<title>12</title>
<path fill="none" stroke="#8fd856" stroke-width="2" d="M652,-468C652,-468 558,-468 558,-468 552,-468 546,-462 546,-456 546,-456 546,-444 546,-444 546,-438 552,-432 558,-432 558,-432 652,-432 652,-432 658,-432 664,-438 664,-444 664,-444 664,-456 664,-456 664,-462 658,-468 652,-468"/>
<text xml:space="preserve" text-anchor="middle" x="605" y="-446.12" font-family="sans" font-size="10.00">r02_02_trimmed_fastqc</text>
</g>
<!-- 12&#45;&gt;7 -->
<g id="edge27" class="edge">
<title>12&#45;&gt;7</title>
<path fill="none" stroke="grey" stroke-width="2" d="M605,-431.34C605,-424.75 605,-417.08 605,-409.67"/>
<polygon fill="grey" stroke="grey" stroke-width="2" points="608.5,-409.93 605,-399.93 601.5,-409.93 608.5,-409.93"/>
</g>
<!-- 13&#45;&gt;12 -->
<g id="edge34" class="edge">
<title>13&#45;&gt;12</title>
<path fill="none" stroke="grey" stroke-width="2" d="M618.46,-503.34C616.74,-496.67 614.74,-488.89 612.81,-481.39"/>
<polygon fill="grey" stroke="grey" stroke-width="2" points="616.24,-480.65 610.36,-471.83 609.46,-482.39 616.24,-480.65"/>
</g>
<!-- 20 -->
<g id="node21" class="node">
<title>20</title>
<path fill="none" stroke="#afd856" stroke-width="2" d="M929.5,-396C929.5,-396 868.5,-396 868.5,-396 862.5,-396 856.5,-390 856.5,-384 856.5,-384 856.5,-372 856.5,-372 856.5,-366 862.5,-360 868.5,-360 868.5,-360 929.5,-360 929.5,-360 935.5,-360 941.5,-366 941.5,-372 941.5,-372 941.5,-384 941.5,-384 941.5,-390 935.5,-396 929.5,-396"/>
<text xml:space="preserve" text-anchor="middle" x="899" y="-374.12" font-family="sans" font-size="10.00">r03_01_kraken2</text>
</g>
<!-- 13&#45;&gt;20 -->
<g id="edge42" class="edge">
<title>13&#45;&gt;20</title>
<path fill="none" stroke="grey" stroke-width="2" d="M664.29,-520.01C711.36,-516.99 788.65,-506.03 842,-468 862.69,-453.25 877.67,-428.42 887.07,-408.73"/>
<polygon fill="grey" stroke="grey" stroke-width="2" points="890.2,-410.3 891.09,-399.74 883.81,-407.44 890.2,-410.3"/>
</g>
<!-- 13&#45;&gt;28 -->
<g id="edge54" class="edge">
<title>13&#45;&gt;28</title>
<path fill="none" stroke="grey" stroke-width="2" d="M664.27,-515.03C713.53,-506.98 791.46,-490.94 809,-468 837.68,-430.49 829.38,-372.38 820.42,-337.19"/>
<polygon fill="grey" stroke="grey" stroke-width="2" points="823.87,-336.54 817.83,-327.84 817.12,-338.41 823.87,-336.54"/>
</g>
<!-- 14 -->
<g id="node15" class="node">
<title>14</title>
<path fill="none" stroke="#8fd856" stroke-width="2" d="M788,-468C788,-468 694,-468 694,-468 688,-468 682,-462 682,-456 682,-456 682,-444 682,-444 682,-438 688,-432 694,-432 694,-432 788,-432 788,-432 794,-432 800,-438 800,-444 800,-444 800,-456 800,-456 800,-462 794,-468 788,-468"/>
<text xml:space="preserve" text-anchor="middle" x="741" y="-446.12" font-family="sans" font-size="10.00">r02_02_trimmed_fastqc</text>
</g>
<!-- 14&#45;&gt;7 -->
<g id="edge28" class="edge">
<title>14&#45;&gt;7</title>
<path fill="none" stroke="grey" stroke-width="2" d="M706.33,-431.15C689.54,-422.52 669.16,-412.02 651.09,-402.72"/>
<polygon fill="grey" stroke="grey" stroke-width="2" points="652.79,-399.66 642.3,-398.2 649.59,-405.89 652.79,-399.66"/>
</g>
<!-- 15&#45;&gt;14 -->
<g id="edge36" class="edge">
<title>15&#45;&gt;14</title>
<path fill="none" stroke="grey" stroke-width="2" d="M823.7,-503.15C810.39,-494.76 794.31,-484.62 779.88,-475.52"/>
<polygon fill="grey" stroke="grey" stroke-width="2" points="782.13,-472.8 771.81,-470.43 778.4,-478.72 782.13,-472.8"/>
</g>
<!-- 21 -->
<g id="node22" class="node">
<title>21</title>
<path fill="none" stroke="#afd856" stroke-width="2" d="M1038.5,-396C1038.5,-396 977.5,-396 977.5,-396 971.5,-396 965.5,-390 965.5,-384 965.5,-384 965.5,-372 965.5,-372 965.5,-366 971.5,-360 977.5,-360 977.5,-360 1038.5,-360 1038.5,-360 1044.5,-360 1050.5,-366 1050.5,-372 1050.5,-372 1050.5,-384 1050.5,-384 1050.5,-390 1044.5,-396 1038.5,-396"/>
<text xml:space="preserve" text-anchor="middle" x="1008" y="-374.12" font-family="sans" font-size="10.00">r03_01_kraken2</text>
</g>
<!-- 15&#45;&gt;21 -->
<g id="edge43" class="edge">
<title>15&#45;&gt;21</title>
<path fill="none" stroke="grey" stroke-width="2" d="M871.76,-503.02C898.83,-478.37 947.67,-433.92 978.92,-405.47"/>
<polygon fill="grey" stroke="grey" stroke-width="2" points="981.13,-408.2 986.16,-398.88 976.41,-403.02 981.13,-408.2"/>
</g>
<!-- 15&#45;&gt;30 -->
<g id="edge58" class="edge">
<title>15&#45;&gt;30</title>
<path fill="none" stroke="grey" stroke-width="2" d="M891.38,-503.07C935.58,-481.71 1007.89,-442.96 1060,-396 1079.73,-378.23 1097.94,-354.26 1110.7,-335.68"/>
<polygon fill="grey" stroke="grey" stroke-width="2" points="1113.57,-337.68 1116.22,-327.42 1107.75,-333.79 1113.57,-337.68"/>
</g>
<!-- 16 -->
<g id="node17" class="node">
<title>16</title>
<path fill="none" stroke="#8fd856" stroke-width="2" d="M1213,-468C1213,-468 1119,-468 1119,-468 1113,-468 1107,-462 1107,-456 1107,-456 1107,-444 1107,-444 1107,-438 1113,-432 1119,-432 1119,-432 1213,-432 1213,-432 1219,-432 1225,-438 1225,-444 1225,-444 1225,-456 1225,-456 1225,-462 1219,-468 1213,-468"/>
<text xml:space="preserve" text-anchor="middle" x="1166" y="-446.12" font-family="sans" font-size="10.00">r02_02_trimmed_fastqc</text>
</g>
<!-- 16&#45;&gt;7 -->
<g id="edge29" class="edge">
<title>16&#45;&gt;7</title>
<path fill="none" stroke="grey" stroke-width="2" d="M1106.23,-441.54C1003.3,-428.7 792.83,-402.44 680.15,-388.38"/>
<polygon fill="grey" stroke="grey" stroke-width="2" points="680.59,-384.91 670.24,-387.14 679.73,-391.85 680.59,-384.91"/>
</g>
<!-- 17&#45;&gt;16 -->
<g id="edge38" class="edge">
<title>17&#45;&gt;16</title>
<path fill="none" stroke="grey" stroke-width="2" d="M1198.15,-503.34C1193.75,-496.18 1188.56,-487.73 1183.65,-479.73"/>
<polygon fill="grey" stroke="grey" stroke-width="2" points="1186.8,-478.17 1178.58,-471.48 1180.83,-481.83 1186.8,-478.17"/>
</g>
<!-- 22 -->
<g id="node23" class="node">
<title>22</title>
<path fill="none" stroke="#afd856" stroke-width="2" d="M1354.5,-396C1354.5,-396 1293.5,-396 1293.5,-396 1287.5,-396 1281.5,-390 1281.5,-384 1281.5,-384 1281.5,-372 1281.5,-372 1281.5,-366 1287.5,-360 1293.5,-360 1293.5,-360 1354.5,-360 1354.5,-360 1360.5,-360 1366.5,-366 1366.5,-372 1366.5,-372 1366.5,-384 1366.5,-384 1366.5,-390 1360.5,-396 1354.5,-396"/>
<text xml:space="preserve" text-anchor="middle" x="1324" y="-374.12" font-family="sans" font-size="10.00">r03_01_kraken2</text>
</g>
<!-- 17&#45;&gt;22 -->
<g id="edge44" class="edge">
<title>17&#45;&gt;22</title>
<path fill="none" stroke="grey" stroke-width="2" d="M1231.23,-503.1C1242.6,-493.36 1256.28,-480.73 1267,-468 1282.63,-449.44 1297.33,-426.3 1307.88,-408.27"/>
<polygon fill="grey" stroke="grey" stroke-width="2" points="1310.9,-410.04 1312.83,-399.62 1304.83,-406.56 1310.9,-410.04"/>
</g>
<!-- 17&#45;&gt;32 -->
<g id="edge62" class="edge">
<title>17&#45;&gt;32</title>
<path fill="none" stroke="grey" stroke-width="2" d="M1219,-503.4C1224.28,-493.33 1230.39,-480.3 1234,-468 1246.98,-423.74 1251.94,-370.29 1253.84,-337.47"/>
<polygon fill="grey" stroke="grey" stroke-width="2" points="1257.32,-337.95 1254.33,-327.78 1250.33,-337.59 1257.32,-337.95"/>
</g>
<!-- 18&#45;&gt;0 -->
<g id="edge3" class="edge">
<title>18&#45;&gt;0</title>
<path fill="none" stroke="grey" stroke-width="2" d="M83.41,-359.13C66.36,-333.1 38,-282.67 38,-235 38,-235 38,-235 38,-161 38,-116.06 48.36,-96.55 86,-72 138.07,-38.04 571.71,-23.71 708.1,-20.02"/>
<polygon fill="grey" stroke="grey" stroke-width="2" points="708.15,-23.52 718.05,-19.75 707.96,-16.52 708.15,-23.52"/>
</g>
<!-- 18&#45;&gt;24 -->
<g id="edge48" class="edge">
<title>18&#45;&gt;24</title>
<path fill="none" stroke="grey" stroke-width="2" d="M107.86,-359.34C112.72,-352.1 118.47,-343.53 123.9,-335.45"/>
<polygon fill="grey" stroke="grey" stroke-width="2" points="126.62,-337.67 129.29,-327.41 120.81,-333.77 126.62,-337.67"/>
</g>
<!-- 19&#45;&gt;0 -->
<g id="edge4" class="edge">
<title>19&#45;&gt;0</title>
<path fill="none" stroke="grey" stroke-width="2" d="M234.9,-359.1C226.51,-303.82 209.96,-135.77 306,-72 371.49,-28.52 611.64,-20.67 708.3,-19.28"/>
<polygon fill="grey" stroke="grey" stroke-width="2" points="708.23,-22.78 718.19,-19.16 708.15,-15.78 708.23,-22.78"/>
</g>
<!-- 19&#45;&gt;26 -->
<g id="edge52" class="edge">
<title>19&#45;&gt;26</title>
<path fill="none" stroke="grey" stroke-width="2" d="M267.06,-359.15C280.73,-350.76 297.24,-340.62 312.06,-331.52"/>
<polygon fill="grey" stroke="grey" stroke-width="2" points="313.72,-334.61 320.41,-326.4 310.06,-328.65 313.72,-334.61"/>
</g>
<!-- 20&#45;&gt;0 -->
<g id="edge5" class="edge">
<title>20&#45;&gt;0</title>
<path fill="none" stroke="grey" stroke-width="2" d="M930.36,-359.08C966.8,-335.65 1022,-290.94 1022,-235 1022,-235 1022,-235 1022,-161 1022,-116.06 1009.67,-99.33 974,-72 919.84,-30.5 838.38,-20.75 789.77,-18.88"/>
<polygon fill="grey" stroke="grey" stroke-width="2" points="790.09,-15.38 780,-18.62 789.91,-22.38 790.09,-15.38"/>
</g>
<!-- 20&#45;&gt;28 -->
<g id="edge56" class="edge">
<title>20&#45;&gt;28</title>
<path fill="none" stroke="grey" stroke-width="2" d="M876.79,-359.34C866.76,-351.36 854.71,-341.77 843.67,-332.99"/>
<polygon fill="grey" stroke="grey" stroke-width="2" points="845.88,-330.27 835.87,-326.79 841.52,-335.75 845.88,-330.27"/>
</g>
<!-- 21&#45;&gt;0 -->
<g id="edge6" class="edge">
<title>21&#45;&gt;0</title>
<path fill="none" stroke="grey" stroke-width="2" d="M1019.03,-359.38C1034.29,-333.26 1060,-282.26 1060,-235 1060,-235 1060,-235 1060,-161 1060,-43.51 874.06,-22.81 789.73,-19.47"/>
<polygon fill="grey" stroke="grey" stroke-width="2" points="790,-15.98 779.9,-19.16 789.78,-22.97 790,-15.98"/>
</g>
<!-- 21&#45;&gt;30 -->
<g id="edge60" class="edge">
<title>21&#45;&gt;30</title>
<path fill="none" stroke="grey" stroke-width="2" d="M1038.85,-359.15C1053.5,-350.68 1071.23,-340.42 1087.07,-331.25"/>
<polygon fill="grey" stroke="grey" stroke-width="2" points="1088.69,-334.37 1095.59,-326.33 1085.18,-328.31 1088.69,-334.37"/>
</g>
<!-- 22&#45;&gt;0 -->
<g id="edge7" class="edge">
<title>22&#45;&gt;0</title>
<path fill="none" stroke="grey" stroke-width="2" d="M1352.18,-359.15C1385.94,-335.31 1438,-289.69 1438,-235 1438,-235 1438,-235 1438,-161 1438,-116.27 1428.33,-96.65 1391,-72 1340.87,-38.89 922.61,-24.02 789.51,-20.1"/>
<polygon fill="grey" stroke="grey" stroke-width="2" points="789.95,-16.61 779.86,-19.82 789.75,-23.61 789.95,-16.61"/>
</g>
<!-- 22&#45;&gt;32 -->
<g id="edge64" class="edge">
<title>22&#45;&gt;32</title>
<path fill="none" stroke="grey" stroke-width="2" d="M1306.59,-359.34C1299.05,-351.69 1290.05,-342.56 1281.69,-334.08"/>
<polygon fill="grey" stroke="grey" stroke-width="2" points="1284.28,-331.72 1274.77,-327.06 1279.3,-336.64 1284.28,-331.72"/>
</g>
<!-- 23 -->
<g id="node24" class="node">
<title>23</title>
<path fill="none" stroke="#56d8c9" stroke-width="2" d="M171.88,-252C171.88,-252 116.12,-252 116.12,-252 110.12,-252 104.12,-246 104.12,-240 104.12,-240 104.12,-228 104.12,-228 104.12,-222 110.12,-216 116.12,-216 116.12,-216 171.88,-216 171.88,-216 177.88,-216 183.88,-222 183.88,-228 183.88,-228 183.88,-240 183.88,-240 183.88,-246 177.88,-252 171.88,-252"/>
<text xml:space="preserve" text-anchor="middle" x="144" y="-230.12" font-family="sans" font-size="10.00">r06_01_prokka</text>
</g>
<!-- 23&#45;&gt;0 -->
<g id="edge8" class="edge">
<title>23&#45;&gt;0</title>
<path fill="none" stroke="grey" stroke-width="2" d="M161.84,-215.01C170.83,-205.25 181.41,-192.62 189,-180 215.63,-135.72 190.78,-103.14 232,-72 269.78,-43.45 593.29,-26.08 708.48,-20.76"/>
<polygon fill="grey" stroke="grey" stroke-width="2" points="708.3,-24.27 718.13,-20.32 707.98,-17.28 708.3,-24.27"/>
</g>
<!-- 41 -->
<g id="node42" class="node">
<title>41</title>
<path fill="none" stroke="#d85656" stroke-width="2" d="M943.75,-180C943.75,-180 836.25,-180 836.25,-180 830.25,-180 824.25,-174 824.25,-168 824.25,-168 824.25,-156 824.25,-156 824.25,-150 830.25,-144 836.25,-144 836.25,-144 943.75,-144 943.75,-144 949.75,-144 955.75,-150 955.75,-156 955.75,-156 955.75,-168 955.75,-168 955.75,-174 949.75,-180 943.75,-180"/>
<text xml:space="preserve" text-anchor="middle" x="890" y="-158.12" font-family="sans" font-size="10.00">r08_00_prokka_reports_txt</text>
</g>
<!-- 23&#45;&gt;41 -->
<g id="edge77" class="edge">
<title>23&#45;&gt;41</title>
<path fill="none" stroke="grey" stroke-width="2" d="M184.73,-226.73C209.13,-223.16 240.78,-218.85 269,-216 506.83,-192.02 572.12,-214.2 810.83,-180.47"/>
<polygon fill="grey" stroke="grey" stroke-width="2" points="811.05,-183.97 820.45,-179.09 810.05,-177.04 811.05,-183.97"/>
</g>
<!-- 43 -->
<g id="node44" class="node">
<title>43</title>
<path fill="none" stroke="#c6d856" stroke-width="2" d="M168.12,-180C168.12,-180 77.88,-180 77.88,-180 71.88,-180 65.88,-174 65.88,-168 65.88,-168 65.88,-156 65.88,-156 65.88,-150 71.88,-144 77.88,-144 77.88,-144 168.12,-144 168.12,-144 174.12,-144 180.12,-150 180.12,-156 180.12,-156 180.12,-168 180.12,-168 180.12,-174 174.12,-180 168.12,-180"/>
<text xml:space="preserve" text-anchor="middle" x="123" y="-158.12" font-family="sans" font-size="10.00">r09_01_prepare_circos</text>
</g>
<!-- 23&#45;&gt;43 -->
<g id="edge84" class="edge">
<title>23&#45;&gt;43</title>
<path fill="none" stroke="grey" stroke-width="2" d="M138.7,-215.34C136.68,-208.59 134.31,-200.69 132.03,-193.11"/>
<polygon fill="grey" stroke="grey" stroke-width="2" points="135.47,-192.37 129.24,-183.8 128.76,-194.39 135.47,-192.37"/>
</g>
<!-- 24&#45;&gt;23 -->
<g id="edge45" class="edge">
<title>24&#45;&gt;23</title>
<path fill="none" stroke="grey" stroke-width="2" d="M143.25,-287.34C143.35,-280.75 143.46,-273.08 143.56,-265.67"/>
<polygon fill="grey" stroke="grey" stroke-width="2" points="147.06,-265.98 143.7,-255.93 140.06,-265.88 147.06,-265.98"/>
</g>
<!-- 35 -->
<g id="node36" class="node">
<title>35</title>
<path fill="none" stroke="#56a9d8" stroke-width="2" d="M438.25,-252C438.25,-252 387.75,-252 387.75,-252 381.75,-252 375.75,-246 375.75,-240 375.75,-240 375.75,-228 375.75,-228 375.75,-222 381.75,-216 387.75,-216 387.75,-216 438.25,-216 438.25,-216 444.25,-216 450.25,-222 450.25,-228 450.25,-228 450.25,-240 450.25,-240 450.25,-246 444.25,-252 438.25,-252"/>
<text xml:space="preserve" text-anchor="middle" x="413" y="-230.12" font-family="sans" font-size="10.00">r05_01_quast</text>
</g>
<!-- 24&#45;&gt;35 -->
<g id="edge71" class="edge">
<title>24&#45;&gt;35</title>
<path fill="none" stroke="grey" stroke-width="2" d="M184.69,-296.72C227.32,-287.91 295.65,-272.84 362.51,-253.18"/>
<polygon fill="grey" stroke="grey" stroke-width="2" points="363.49,-256.54 372.07,-250.33 361.48,-249.84 363.49,-256.54"/>
</g>
<!-- 24&#45;&gt;43 -->
<g id="edge83" class="edge">
<title>24&#45;&gt;43</title>
<path fill="none" stroke="grey" stroke-width="2" d="M120.53,-287.08C110.7,-277.79 100.22,-265.55 95,-252 87.43,-232.35 94.76,-209.71 103.82,-192.18"/>
<polygon fill="grey" stroke="grey" stroke-width="2" points="106.81,-194.01 108.71,-183.59 100.72,-190.55 106.81,-194.01"/>
</g>
<!-- 25 -->
<g id="node26" class="node">
<title>25</title>
<path fill="none" stroke="#56d8c9" stroke-width="2" d="M345.88,-252C345.88,-252 290.12,-252 290.12,-252 284.12,-252 278.12,-246 278.12,-240 278.12,-240 278.12,-228 278.12,-228 278.12,-222 284.12,-216 290.12,-216 290.12,-216 345.88,-216 345.88,-216 351.88,-216 357.88,-222 357.88,-228 357.88,-228 357.88,-240 357.88,-240 357.88,-246 351.88,-252 345.88,-252"/>
<text xml:space="preserve" text-anchor="middle" x="318" y="-230.12" font-family="sans" font-size="10.00">r06_01_prokka</text>
</g>
<!-- 25&#45;&gt;0 -->
<g id="edge9" class="edge">
<title>25&#45;&gt;0</title>
<path fill="none" stroke="grey" stroke-width="2" d="M347.46,-215.13C362.73,-205.4 381.41,-192.76 397,-180 449.78,-136.81 446.08,-104.56 506,-72 570.99,-36.68 657.8,-24.9 708.14,-20.97"/>
<polygon fill="grey" stroke="grey" stroke-width="2" points="708.27,-24.47 718,-20.28 707.78,-17.49 708.27,-24.47"/>
</g>
<!-- 25&#45;&gt;41 -->
<g id="edge78" class="edge">
<title>25&#45;&gt;41</title>
<path fill="none" stroke="grey" stroke-width="2" d="M358.69,-218.02C361.48,-217.26 364.27,-216.57 367,-216 558.38,-175.8 615.16,-208.71 810.67,-180.51"/>
<polygon fill="grey" stroke="grey" stroke-width="2" points="811.07,-183.98 820.44,-179.05 810.04,-177.06 811.07,-183.98"/>
</g>
<!-- 45 -->
<g id="node46" class="node">
<title>45</title>
<path fill="none" stroke="#c6d856" stroke-width="2" d="M376.12,-180C376.12,-180 285.88,-180 285.88,-180 279.88,-180 273.88,-174 273.88,-168 273.88,-168 273.88,-156 273.88,-156 273.88,-150 279.88,-144 285.88,-144 285.88,-144 376.12,-144 376.12,-144 382.12,-144 388.12,-150 388.12,-156 388.12,-156 388.12,-168 388.12,-168 388.12,-174 382.12,-180 376.12,-180"/>
<text xml:space="preserve" text-anchor="middle" x="331" y="-158.12" font-family="sans" font-size="10.00">r09_01_prepare_circos</text>
</g>
<!-- 25&#45;&gt;45 -->
<g id="edge87" class="edge">
<title>25&#45;&gt;45</title>
<path fill="none" stroke="grey" stroke-width="2" d="M321.28,-215.34C322.5,-208.75 323.93,-201.08 325.3,-193.67"/>
<polygon fill="grey" stroke="grey" stroke-width="2" points="328.74,-194.35 327.12,-183.88 321.86,-193.07 328.74,-194.35"/>
</g>
<!-- 26&#45;&gt;25 -->
<g id="edge49" class="edge">
<title>26&#45;&gt;25</title>
<path fill="none" stroke="grey" stroke-width="2" d="M343.42,-287.34C340.06,-280.43 336.12,-272.31 332.36,-264.56"/>
<polygon fill="grey" stroke="grey" stroke-width="2" points="335.54,-263.09 328.02,-255.62 329.24,-266.15 335.54,-263.09"/>
</g>
<!-- 36 -->
<g id="node37" class="node">
<title>36</title>
<path fill="none" stroke="#56a9d8" stroke-width="2" d="M531.25,-252C531.25,-252 480.75,-252 480.75,-252 474.75,-252 468.75,-246 468.75,-240 468.75,-240 468.75,-228 468.75,-228 468.75,-222 474.75,-216 480.75,-216 480.75,-216 531.25,-216 531.25,-216 537.25,-216 543.25,-222 543.25,-228 543.25,-228 543.25,-240 543.25,-240 543.25,-246 537.25,-252 531.25,-252"/>
<text xml:space="preserve" text-anchor="middle" x="506" y="-230.12" font-family="sans" font-size="10.00">r05_01_quast</text>
</g>
<!-- 26&#45;&gt;36 -->
<g id="edge72" class="edge">
<title>26&#45;&gt;36</title>
<path fill="none" stroke="grey" stroke-width="2" d="M391.26,-287.15C411.02,-278.17 435.18,-267.19 456.23,-257.62"/>
<polygon fill="grey" stroke="grey" stroke-width="2" points="457.47,-260.91 465.12,-253.58 454.57,-254.53 457.47,-260.91"/>
</g>
<!-- 26&#45;&gt;45 -->
<g id="edge86" class="edge">
<title>26&#45;&gt;45</title>
<path fill="none" stroke="grey" stroke-width="2" d="M310.19,-288.81C294.33,-280.38 277.95,-268.34 269,-252 261.31,-237.97 262.3,-230.53 269,-216 273.82,-205.53 281.84,-196.37 290.54,-188.73"/>
<polygon fill="grey" stroke="grey" stroke-width="2" points="292.52,-191.63 298.15,-182.66 288.15,-186.16 292.52,-191.63"/>
</g>
<!-- 27 -->
<g id="node28" class="node">
<title>27</title>
<path fill="none" stroke="#56d8c9" stroke-width="2" d="M981.88,-252C981.88,-252 926.12,-252 926.12,-252 920.12,-252 914.12,-246 914.12,-240 914.12,-240 914.12,-228 914.12,-228 914.12,-222 920.12,-216 926.12,-216 926.12,-216 981.88,-216 981.88,-216 987.88,-216 993.88,-222 993.88,-228 993.88,-228 993.88,-240 993.88,-240 993.88,-246 987.88,-252 981.88,-252"/>
<text xml:space="preserve" text-anchor="middle" x="954" y="-230.12" font-family="sans" font-size="10.00">r06_01_prokka</text>
</g>
<!-- 27&#45;&gt;0 -->
<g id="edge10" class="edge">
<title>27&#45;&gt;0</title>
<path fill="none" stroke="grey" stroke-width="2" d="M960.41,-215.19C971.04,-182.14 987.71,-111.16 951,-72 929.22,-48.76 842.18,-32.46 789.72,-24.51"/>
<polygon fill="grey" stroke="grey" stroke-width="2" points="790.27,-21.06 779.87,-23.07 789.26,-27.98 790.27,-21.06"/>
</g>
<!-- 27&#45;&gt;41 -->
<g id="edge79" class="edge">
<title>27&#45;&gt;41</title>
<path fill="none" stroke="grey" stroke-width="2" d="M937.85,-215.34C930.93,-207.77 922.69,-198.75 915.01,-190.35"/>
<polygon fill="grey" stroke="grey" stroke-width="2" points="917.74,-188.15 908.41,-183.14 912.57,-192.88 917.74,-188.15"/>
</g>
<!-- 47 -->
<g id="node48" class="node">
<title>47</title>
<path fill="none" stroke="#c6d856" stroke-width="2" d="M794.12,-180C794.12,-180 703.88,-180 703.88,-180 697.88,-180 691.88,-174 691.88,-168 691.88,-168 691.88,-156 691.88,-156 691.88,-150 697.88,-144 703.88,-144 703.88,-144 794.12,-144 794.12,-144 800.12,-144 806.12,-150 806.12,-156 806.12,-156 806.12,-168 806.12,-168 806.12,-174 800.12,-180 794.12,-180"/>
<text xml:space="preserve" text-anchor="middle" x="749" y="-158.12" font-family="sans" font-size="10.00">r09_01_prepare_circos</text>
</g>
<!-- 27&#45;&gt;47 -->
<g id="edge90" class="edge">
<title>27&#45;&gt;47</title>
<path fill="none" stroke="grey" stroke-width="2" d="M913.37,-218.88C910.53,-217.9 907.73,-216.94 905,-216 875.19,-205.76 842.14,-194.52 814.16,-185.03"/>
<polygon fill="grey" stroke="grey" stroke-width="2" points="815.56,-181.81 804.97,-181.92 813.31,-188.44 815.56,-181.81"/>
</g>
<!-- 28&#45;&gt;27 -->
<g id="edge53" class="edge">
<title>28&#45;&gt;27</title>
<path fill="none" stroke="grey" stroke-width="2" d="M847.45,-287.15C865.27,-278.43 886.95,-267.82 906.08,-258.46"/>
<polygon fill="grey" stroke="grey" stroke-width="2" points="907.45,-261.68 914.89,-254.14 904.37,-255.4 907.45,-261.68"/>
</g>
<!-- 37 -->
<g id="node38" class="node">
<title>37</title>
<path fill="none" stroke="#56a9d8" stroke-width="2" d="M661.25,-252C661.25,-252 610.75,-252 610.75,-252 604.75,-252 598.75,-246 598.75,-240 598.75,-240 598.75,-228 598.75,-228 598.75,-222 604.75,-216 610.75,-216 610.75,-216 661.25,-216 661.25,-216 667.25,-216 673.25,-222 673.25,-228 673.25,-228 673.25,-240 673.25,-240 673.25,-246 667.25,-252 661.25,-252"/>
<text xml:space="preserve" text-anchor="middle" x="636" y="-230.12" font-family="sans" font-size="10.00">r05_01_quast</text>
</g>
<!-- 28&#45;&gt;37 -->
<g id="edge73" class="edge">
<title>28&#45;&gt;37</title>
<path fill="none" stroke="grey" stroke-width="2" d="M769.08,-288.23C744.12,-278.25 712.28,-265.51 686.01,-255"/>
<polygon fill="grey" stroke="grey" stroke-width="2" points="687.39,-251.79 676.8,-251.32 684.79,-258.29 687.39,-251.79"/>
</g>
<!-- 28&#45;&gt;47 -->
<g id="edge89" class="edge">
<title>28&#45;&gt;47</title>
<path fill="none" stroke="grey" stroke-width="2" d="M804.2,-287.11C797.22,-269.03 785.88,-240.35 775,-216 771.58,-208.35 767.7,-200.19 763.99,-192.62"/>
<polygon fill="grey" stroke="grey" stroke-width="2" points="767.16,-191.11 759.57,-183.71 760.88,-194.23 767.16,-191.11"/>
</g>
<!-- 29 -->
<g id="node30" class="node">
<title>29</title>
<path fill="none" stroke="#56d8c9" stroke-width="2" d="M1155.88,-252C1155.88,-252 1100.12,-252 1100.12,-252 1094.12,-252 1088.12,-246 1088.12,-240 1088.12,-240 1088.12,-228 1088.12,-228 1088.12,-222 1094.12,-216 1100.12,-216 1100.12,-216 1155.88,-216 1155.88,-216 1161.88,-216 1167.88,-222 1167.88,-228 1167.88,-228 1167.88,-240 1167.88,-240 1167.88,-246 1161.88,-252 1155.88,-252"/>
<text xml:space="preserve" text-anchor="middle" x="1128" y="-230.12" font-family="sans" font-size="10.00">r06_01_prokka</text>
</g>
<!-- 29&#45;&gt;0 -->
<g id="edge11" class="edge">
<title>29&#45;&gt;0</title>
<path fill="none" stroke="grey" stroke-width="2" d="M1124.43,-215.15C1116.48,-177.31 1096.3,-90.95 1074,-72 1031.83,-36.16 867.53,-24.21 789.97,-20.52"/>
<polygon fill="grey" stroke="grey" stroke-width="2" points="790.15,-17.03 780.01,-20.08 789.84,-24.02 790.15,-17.03"/>
</g>
<!-- 29&#45;&gt;41 -->
<g id="edge80" class="edge">
<title>29&#45;&gt;41</title>
<path fill="none" stroke="grey" stroke-width="2" d="M1087.36,-221.05C1053.43,-211.07 1004.2,-196.59 963.4,-184.59"/>
<polygon fill="grey" stroke="grey" stroke-width="2" points="964.52,-181.27 953.94,-181.8 962.54,-187.98 964.52,-181.27"/>
</g>
<!-- 49 -->
<g id="node50" class="node">
<title>49</title>
<path fill="none" stroke="#c6d856" stroke-width="2" d="M1228.12,-180C1228.12,-180 1137.88,-180 1137.88,-180 1131.88,-180 1125.88,-174 1125.88,-168 1125.88,-168 1125.88,-156 1125.88,-156 1125.88,-150 1131.88,-144 1137.88,-144 1137.88,-144 1228.12,-144 1228.12,-144 1234.12,-144 1240.12,-150 1240.12,-156 1240.12,-156 1240.12,-168 1240.12,-168 1240.12,-174 1234.12,-180 1228.12,-180"/>
<text xml:space="preserve" text-anchor="middle" x="1183" y="-158.12" font-family="sans" font-size="10.00">r09_01_prepare_circos</text>
</g>
<!-- 29&#45;&gt;49 -->
<g id="edge93" class="edge">
<title>29&#45;&gt;49</title>
<path fill="none" stroke="grey" stroke-width="2" d="M1141.88,-215.34C1147.7,-207.93 1154.6,-199.14 1161.08,-190.9"/>
<polygon fill="grey" stroke="grey" stroke-width="2" points="1163.64,-193.31 1167.06,-183.28 1158.13,-188.98 1163.64,-193.31"/>
</g>
<!-- 30&#45;&gt;29 -->
<g id="edge57" class="edge">
<title>30&#45;&gt;29</title>
<path fill="none" stroke="grey" stroke-width="2" d="M1128.75,-287.34C1128.65,-280.75 1128.54,-273.08 1128.44,-265.67"/>
<polygon fill="grey" stroke="grey" stroke-width="2" points="1131.94,-265.88 1128.3,-255.93 1124.94,-265.98 1131.94,-265.88"/>
</g>
<!-- 38 -->
<g id="node39" class="node">
<title>38</title>
<path fill="none" stroke="#56a9d8" stroke-width="2" d="M754.25,-252C754.25,-252 703.75,-252 703.75,-252 697.75,-252 691.75,-246 691.75,-240 691.75,-240 691.75,-228 691.75,-228 691.75,-222 697.75,-216 703.75,-216 703.75,-216 754.25,-216 754.25,-216 760.25,-216 766.25,-222 766.25,-228 766.25,-228 766.25,-240 766.25,-240 766.25,-246 760.25,-252 754.25,-252"/>
<text xml:space="preserve" text-anchor="middle" x="729" y="-230.12" font-family="sans" font-size="10.00">r05_01_quast</text>
</g>
<!-- 30&#45;&gt;38 -->
<g id="edge74" class="edge">
<title>30&#45;&gt;38</title>
<path fill="none" stroke="grey" stroke-width="2" d="M1087.01,-298.42C1026.39,-288.81 910.91,-270.11 813,-252 802.17,-250 790.58,-247.73 779.57,-245.52"/>
<polygon fill="grey" stroke="grey" stroke-width="2" points="780.46,-242.13 769.97,-243.57 779.07,-248.99 780.46,-242.13"/>
</g>
<!-- 30&#45;&gt;49 -->
<g id="edge92" class="edge">
<title>30&#45;&gt;49</title>
<path fill="none" stroke="grey" stroke-width="2" d="M1150.81,-287.15C1160.63,-277.8 1171.27,-265.48 1177,-252 1184.78,-233.69 1186.26,-211.34 1185.81,-193.63"/>
<polygon fill="grey" stroke="grey" stroke-width="2" points="1189.31,-193.67 1185.29,-183.87 1182.32,-194.04 1189.31,-193.67"/>
</g>
<!-- 31 -->
<g id="node32" class="node">
<title>31</title>
<path fill="none" stroke="#56d8c9" stroke-width="2" d="M1294.88,-252C1294.88,-252 1239.12,-252 1239.12,-252 1233.12,-252 1227.12,-246 1227.12,-240 1227.12,-240 1227.12,-228 1227.12,-228 1227.12,-222 1233.12,-216 1239.12,-216 1239.12,-216 1294.88,-216 1294.88,-216 1300.88,-216 1306.88,-222 1306.88,-228 1306.88,-228 1306.88,-240 1306.88,-240 1306.88,-246 1300.88,-252 1294.88,-252"/>
<text xml:space="preserve" text-anchor="middle" x="1267" y="-230.12" font-family="sans" font-size="10.00">r06_01_prokka</text>
</g>
<!-- 31&#45;&gt;0 -->
<g id="edge12" class="edge">
<title>31&#45;&gt;0</title>
<path fill="none" stroke="grey" stroke-width="2" d="M1268.08,-215.03C1269.05,-180.73 1265.58,-106.3 1221,-72 1154.07,-20.5 892.06,-17.48 790.01,-18.33"/>
<polygon fill="grey" stroke="grey" stroke-width="2" points="789.97,-14.83 780.01,-18.44 790.04,-21.83 789.97,-14.83"/>
</g>
<!-- 31&#45;&gt;41 -->
<g id="edge81" class="edge">
<title>31&#45;&gt;41</title>
<path fill="none" stroke="grey" stroke-width="2" d="M1226.24,-225.26C1210.81,-222.35 1193.1,-219.01 1177,-216 1106.85,-202.9 1027.01,-188.17 969.38,-177.57"/>
<polygon fill="grey" stroke="grey" stroke-width="2" points="970.15,-174.15 959.68,-175.79 968.88,-181.04 970.15,-174.15"/>
</g>
<!-- 51 -->
<g id="node52" class="node">
<title>51</title>
<path fill="none" stroke="#c6d856" stroke-width="2" d="M1398.12,-180C1398.12,-180 1307.88,-180 1307.88,-180 1301.88,-180 1295.88,-174 1295.88,-168 1295.88,-168 1295.88,-156 1295.88,-156 1295.88,-150 1301.88,-144 1307.88,-144 1307.88,-144 1398.12,-144 1398.12,-144 1404.12,-144 1410.12,-150 1410.12,-156 1410.12,-156 1410.12,-168 1410.12,-168 1410.12,-174 1404.12,-180 1398.12,-180"/>
<text xml:space="preserve" text-anchor="middle" x="1353" y="-158.12" font-family="sans" font-size="10.00">r09_01_prepare_circos</text>
</g>
<!-- 31&#45;&gt;51 -->
<g id="edge96" class="edge">
<title>31&#45;&gt;51</title>
<path fill="none" stroke="grey" stroke-width="2" d="M1288.7,-215.34C1298.51,-207.36 1310.29,-197.77 1321.07,-188.99"/>
<polygon fill="grey" stroke="grey" stroke-width="2" points="1323.11,-191.84 1328.66,-182.81 1318.69,-186.41 1323.11,-191.84"/>
</g>
<!-- 32&#45;&gt;31 -->
<g id="edge61" class="edge">
<title>32&#45;&gt;31</title>
<path fill="none" stroke="grey" stroke-width="2" d="M1258.03,-287.34C1259.16,-280.75 1260.47,-273.08 1261.74,-265.67"/>
<polygon fill="grey" stroke="grey" stroke-width="2" points="1265.18,-266.33 1263.42,-255.89 1258.28,-265.15 1265.18,-266.33"/>
</g>
<!-- 39 -->
<g id="node40" class="node">
<title>39</title>
<path fill="none" stroke="#56a9d8" stroke-width="2" d="M884.25,-252C884.25,-252 833.75,-252 833.75,-252 827.75,-252 821.75,-246 821.75,-240 821.75,-240 821.75,-228 821.75,-228 821.75,-222 827.75,-216 833.75,-216 833.75,-216 884.25,-216 884.25,-216 890.25,-216 896.25,-222 896.25,-228 896.25,-228 896.25,-240 896.25,-240 896.25,-246 890.25,-252 884.25,-252"/>
<text xml:space="preserve" text-anchor="middle" x="859" y="-230.12" font-family="sans" font-size="10.00">r05_01_quast</text>
</g>
<!-- 32&#45;&gt;39 -->
<g id="edge75" class="edge">
<title>32&#45;&gt;39</title>
<path fill="none" stroke="grey" stroke-width="2" d="M1213.32,-294.97C1202.21,-292.49 1190.18,-289.98 1179,-288 1062.07,-267.28 1026.58,-280.52 909.55,-252.84"/>
<polygon fill="grey" stroke="grey" stroke-width="2" points="910.69,-249.52 900.14,-250.56 909.04,-256.32 910.69,-249.52"/>
</g>
<!-- 32&#45;&gt;51 -->
<g id="edge95" class="edge">
<title>32&#45;&gt;51</title>
<path fill="none" stroke="grey" stroke-width="2" d="M1280.63,-287.11C1292.6,-277.74 1306.32,-265.43 1316,-252 1328.84,-234.2 1338.23,-211.27 1344.34,-193.15"/>
<polygon fill="grey" stroke="grey" stroke-width="2" points="1347.61,-194.42 1347.3,-183.83 1340.94,-192.3 1347.61,-194.42"/>
</g>
<!-- 33 -->
<g id="node34" class="node">
<title>33</title>
<path fill="none" stroke="#d8ac56" stroke-width="2" d="M670.12,-108C670.12,-108 573.88,-108 573.88,-108 567.88,-108 561.88,-102 561.88,-96 561.88,-96 561.88,-84 561.88,-84 561.88,-78 567.88,-72 573.88,-72 573.88,-72 670.12,-72 670.12,-72 676.12,-72 682.12,-78 682.12,-84 682.12,-84 682.12,-96 682.12,-96 682.12,-102 676.12,-108 670.12,-108"/>
<text xml:space="preserve" text-anchor="middle" x="622" y="-86.12" font-family="sans" font-size="10.00">r07_01_quast_summary</text>
</g>
<!-- 33&#45;&gt;0 -->
<g id="edge13" class="edge">
<title>33&#45;&gt;0</title>
<path fill="none" stroke="grey" stroke-width="2" d="M654.38,-71.15C671.38,-61.78 692.33,-50.23 710.2,-40.39"/>
<polygon fill="grey" stroke="grey" stroke-width="2" points="711.7,-43.56 718.77,-35.66 708.32,-37.43 711.7,-43.56"/>
</g>
<!-- 34 -->
<g id="node35" class="node">
<title>34</title>
<path fill="none" stroke="#59d856" stroke-width="2" d="M662.12,-180C662.12,-180 559.88,-180 559.88,-180 553.88,-180 547.88,-174 547.88,-168 547.88,-168 547.88,-156 547.88,-156 547.88,-150 553.88,-144 559.88,-144 559.88,-144 662.12,-144 662.12,-144 668.12,-144 674.12,-150 674.12,-156 674.12,-156 674.12,-168 674.12,-168 674.12,-174 668.12,-180 662.12,-180"/>
<text xml:space="preserve" text-anchor="middle" x="611" y="-158.12" font-family="sans" font-size="10.00">r07_00_quast_reports_txt</text>
</g>
<!-- 34&#45;&gt;33 -->
<g id="edge65" class="edge">
<title>34&#45;&gt;33</title>
<path fill="none" stroke="grey" stroke-width="2" d="M613.78,-143.34C614.81,-136.75 616.02,-129.08 617.18,-121.67"/>
<polygon fill="grey" stroke="grey" stroke-width="2" points="620.62,-122.31 618.72,-111.89 613.71,-121.23 620.62,-122.31"/>
</g>
<!-- 35&#45;&gt;34 -->
<g id="edge66" class="edge">
<title>35&#45;&gt;34</title>
<path fill="none" stroke="grey" stroke-width="2" d="M451.21,-219.15C454.18,-218.08 457.14,-217.02 460,-216 488.71,-205.77 520.54,-194.57 547.55,-185.12"/>
<polygon fill="grey" stroke="grey" stroke-width="2" points="548.45,-188.51 556.73,-181.91 546.14,-181.91 548.45,-188.51"/>
</g>
<!-- 36&#45;&gt;34 -->
<g id="edge67" class="edge">
<title>36&#45;&gt;34</title>
<path fill="none" stroke="grey" stroke-width="2" d="M532.77,-215.15C545.23,-206.84 560.27,-196.82 573.82,-187.79"/>
<polygon fill="grey" stroke="grey" stroke-width="2" points="575.38,-190.95 581.76,-182.49 571.5,-185.13 575.38,-190.95"/>
</g>
<!-- 37&#45;&gt;34 -->
<g id="edge68" class="edge">
<title>37&#45;&gt;34</title>
<path fill="none" stroke="grey" stroke-width="2" d="M629.69,-215.34C627.28,-208.59 624.46,-200.69 621.75,-193.11"/>
<polygon fill="grey" stroke="grey" stroke-width="2" points="625.07,-191.99 618.41,-183.75 618.48,-194.35 625.07,-191.99"/>
</g>
<!-- 38&#45;&gt;34 -->
<g id="edge69" class="edge">
<title>38&#45;&gt;34</title>
<path fill="none" stroke="grey" stroke-width="2" d="M698.92,-215.15C684.63,-206.68 667.34,-196.42 651.89,-187.25"/>
<polygon fill="grey" stroke="grey" stroke-width="2" points="654.02,-184.45 643.63,-182.36 650.45,-190.47 654.02,-184.45"/>
</g>
<!-- 39&#45;&gt;34 -->
<g id="edge70" class="edge">
<title>39&#45;&gt;34</title>
<path fill="none" stroke="grey" stroke-width="2" d="M820.79,-222.22C785.23,-212.18 731.19,-196.92 686.86,-184.41"/>
<polygon fill="grey" stroke="grey" stroke-width="2" points="687.83,-181.05 677.26,-181.7 685.93,-187.79 687.83,-181.05"/>
</g>
<!-- 40 -->
<g id="node41" class="node">
<title>40</title>
<path fill="none" stroke="#56c9d8" stroke-width="2" d="M929.75,-108C929.75,-108 828.25,-108 828.25,-108 822.25,-108 816.25,-102 816.25,-96 816.25,-96 816.25,-84 816.25,-84 816.25,-78 822.25,-72 828.25,-72 828.25,-72 929.75,-72 929.75,-72 935.75,-72 941.75,-78 941.75,-84 941.75,-84 941.75,-96 941.75,-96 941.75,-102 935.75,-108 929.75,-108"/>
<text xml:space="preserve" text-anchor="middle" x="879" y="-86.12" font-family="sans" font-size="10.00">r08_01_prokka_summary</text>
</g>
<!-- 40&#45;&gt;0 -->
<g id="edge14" class="edge">
<title>40&#45;&gt;0</title>
<path fill="none" stroke="grey" stroke-width="2" d="M845.86,-71.15C828.25,-61.67 806.5,-49.96 788.07,-40.04"/>
<polygon fill="grey" stroke="grey" stroke-width="2" points="789.94,-37.07 779.47,-35.41 786.62,-43.23 789.94,-37.07"/>
</g>
<!-- 41&#45;&gt;40 -->
<g id="edge76" class="edge">
<title>41&#45;&gt;40</title>
<path fill="none" stroke="grey" stroke-width="2" d="M887.22,-143.34C886.19,-136.75 884.98,-129.08 883.82,-121.67"/>
<polygon fill="grey" stroke="grey" stroke-width="2" points="887.29,-121.23 882.28,-111.89 880.38,-122.31 887.29,-121.23"/>
</g>
<!-- 42 -->
<g id="node43" class="node">
<title>42</title>
<path fill="none" stroke="#d88d56" stroke-width="2" d="M159.38,-108C159.38,-108 106.62,-108 106.62,-108 100.62,-108 94.62,-102 94.62,-96 94.62,-96 94.62,-84 94.62,-84 94.62,-78 100.62,-72 106.62,-72 106.62,-72 159.38,-72 159.38,-72 165.38,-72 171.38,-78 171.38,-84 171.38,-84 171.38,-96 171.38,-96 171.38,-102 165.38,-108 159.38,-108"/>
<text xml:space="preserve" text-anchor="middle" x="133" y="-86.12" font-family="sans" font-size="10.00">r09_02_circos</text>
</g>
<!-- 42&#45;&gt;0 -->
<g id="edge15" class="edge">
<title>42&#45;&gt;0</title>
<path fill="none" stroke="grey" stroke-width="2" d="M172.14,-77C179.36,-75.1 186.87,-73.32 194,-72 384.29,-36.68 615.9,-24.2 708.2,-20.43"/>
<polygon fill="grey" stroke="grey" stroke-width="2" points="708.16,-23.94 718.01,-20.05 707.88,-16.94 708.16,-23.94"/>
</g>
<!-- 43&#45;&gt;42 -->
<g id="edge82" class="edge">
<title>43&#45;&gt;42</title>
<path fill="none" stroke="grey" stroke-width="2" d="M125.52,-143.34C126.46,-136.75 127.56,-129.08 128.62,-121.67"/>
<polygon fill="grey" stroke="grey" stroke-width="2" points="132.07,-122.29 130.01,-111.9 125.14,-121.3 132.07,-122.29"/>
</g>
<!-- 44 -->
<g id="node45" class="node">
<title>44</title>
<path fill="none" stroke="#d88d56" stroke-width="2" d="M379.38,-108C379.38,-108 326.62,-108 326.62,-108 320.62,-108 314.62,-102 314.62,-96 314.62,-96 314.62,-84 314.62,-84 314.62,-78 320.62,-72 326.62,-72 326.62,-72 379.38,-72 379.38,-72 385.38,-72 391.38,-78 391.38,-84 391.38,-84 391.38,-96 391.38,-96 391.38,-102 385.38,-108 379.38,-108"/>
<text xml:space="preserve" text-anchor="middle" x="353" y="-86.12" font-family="sans" font-size="10.00">r09_02_circos</text>
</g>
<!-- 44&#45;&gt;0 -->
<g id="edge16" class="edge">
<title>44&#45;&gt;0</title>
<path fill="none" stroke="grey" stroke-width="2" d="M392.32,-81.84C409.16,-78.79 429.04,-75.2 447,-72 540.59,-55.32 650.57,-36.12 708.53,-26.03"/>
<polygon fill="grey" stroke="grey" stroke-width="2" points="708.86,-29.53 718.11,-24.37 707.66,-22.63 708.86,-29.53"/>
</g>
<!-- 45&#45;&gt;44 -->
<g id="edge85" class="edge">
<title>45&#45;&gt;44</title>
<path fill="none" stroke="grey" stroke-width="2" d="M336.55,-143.34C338.67,-136.59 341.15,-128.69 343.54,-121.11"/>
<polygon fill="grey" stroke="grey" stroke-width="2" points="346.81,-122.38 346.47,-111.79 340.13,-120.28 346.81,-122.38"/>
</g>
<!-- 46 -->
<g id="node47" class="node">
<title>46</title>
<path fill="none" stroke="#d88d56" stroke-width="2" d="M775.38,-108C775.38,-108 722.62,-108 722.62,-108 716.62,-108 710.62,-102 710.62,-96 710.62,-96 710.62,-84 710.62,-84 710.62,-78 716.62,-72 722.62,-72 722.62,-72 775.38,-72 775.38,-72 781.38,-72 787.38,-78 787.38,-84 787.38,-84 787.38,-96 787.38,-96 787.38,-102 781.38,-108 775.38,-108"/>
<text xml:space="preserve" text-anchor="middle" x="749" y="-86.12" font-family="sans" font-size="10.00">r09_02_circos</text>
</g>
<!-- 46&#45;&gt;0 -->
<g id="edge17" class="edge">
<title>46&#45;&gt;0</title>
<path fill="none" stroke="grey" stroke-width="2" d="M749,-71.34C749,-64.75 749,-57.08 749,-49.67"/>
<polygon fill="grey" stroke="grey" stroke-width="2" points="752.5,-49.93 749,-39.93 745.5,-49.93 752.5,-49.93"/>
</g>
<!-- 47&#45;&gt;46 -->
<g id="edge88" class="edge">
<title>47&#45;&gt;46</title>
<path fill="none" stroke="grey" stroke-width="2" d="M749,-143.34C749,-136.75 749,-129.08 749,-121.67"/>
<polygon fill="grey" stroke="grey" stroke-width="2" points="752.5,-121.93 749,-111.93 745.5,-121.93 752.5,-121.93"/>
</g>
<!-- 48 -->
<g id="node49" class="node">
<title>48</title>
<path fill="none" stroke="#d88d56" stroke-width="2" d="M1200.38,-108C1200.38,-108 1147.62,-108 1147.62,-108 1141.62,-108 1135.62,-102 1135.62,-96 1135.62,-96 1135.62,-84 1135.62,-84 1135.62,-78 1141.62,-72 1147.62,-72 1147.62,-72 1200.38,-72 1200.38,-72 1206.38,-72 1212.38,-78 1212.38,-84 1212.38,-84 1212.38,-96 1212.38,-96 1212.38,-102 1206.38,-108 1200.38,-108"/>
<text xml:space="preserve" text-anchor="middle" x="1174" y="-86.12" font-family="sans" font-size="10.00">r09_02_circos</text>
</g>
<!-- 48&#45;&gt;0 -->
<g id="edge18" class="edge">
<title>48&#45;&gt;0</title>
<path fill="none" stroke="grey" stroke-width="2" d="M1134.82,-77.48C1127.29,-75.48 1119.43,-73.55 1112,-72 996.23,-47.77 857.4,-30.81 789.89,-23.31"/>
<polygon fill="grey" stroke="grey" stroke-width="2" points="790.32,-19.84 779.99,-22.23 789.55,-26.8 790.32,-19.84"/>
</g>
<!-- 49&#45;&gt;48 -->
<g id="edge91" class="edge">
<title>49&#45;&gt;48</title>
<path fill="none" stroke="grey" stroke-width="2" d="M1180.73,-143.34C1179.88,-136.75 1178.9,-129.08 1177.94,-121.67"/>
<polygon fill="grey" stroke="grey" stroke-width="2" points="1181.43,-121.38 1176.69,-111.9 1174.49,-122.27 1181.43,-121.38"/>
</g>
<!-- 50 -->
<g id="node51" class="node">
<title>50</title>
<path fill="none" stroke="#d88d56" stroke-width="2" d="M1370.38,-108C1370.38,-108 1317.62,-108 1317.62,-108 1311.62,-108 1305.62,-102 1305.62,-96 1305.62,-96 1305.62,-84 1305.62,-84 1305.62,-78 1311.62,-72 1317.62,-72 1317.62,-72 1370.38,-72 1370.38,-72 1376.38,-72 1382.38,-78 1382.38,-84 1382.38,-84 1382.38,-96 1382.38,-96 1382.38,-102 1376.38,-108 1370.38,-108"/>
<text xml:space="preserve" text-anchor="middle" x="1344" y="-86.12" font-family="sans" font-size="10.00">r09_02_circos</text>
</g>
<!-- 50&#45;&gt;0 -->
<g id="edge19" class="edge">
<title>50&#45;&gt;0</title>
<path fill="none" stroke="grey" stroke-width="2" d="M1304.87,-77.2C1297.33,-75.23 1289.46,-73.38 1282,-72 1100.24,-38.29 879.36,-24.98 789.72,-20.71"/>
<polygon fill="grey" stroke="grey" stroke-width="2" points="790.15,-17.22 780,-20.26 789.83,-24.22 790.15,-17.22"/>
</g>
<!-- 51&#45;&gt;50 -->
<g id="edge94" class="edge">
<title>51&#45;&gt;50</title>
<path fill="none" stroke="grey" stroke-width="2" d="M1350.73,-143.34C1349.88,-136.75 1348.9,-129.08 1347.94,-121.67"/>
<polygon fill="grey" stroke="grey" stroke-width="2" points="1351.43,-121.38 1346.69,-111.9 1344.49,-122.27 1351.43,-121.38"/>
</g>
</g>
</svg>
