<?xml version="1.0" encoding="UTF-8" standalone="no"?>
<!DOCTYPE svg PUBLIC "-//W3C//DTD SVG 1.1//EN"
 "http://www.w3.org/Graphics/SVG/1.1/DTD/svg11.dtd">
<!-- Generated by graphviz version 14.1.2 (0)
 -->
<!-- Title: snakemake_dag Pages: 1 -->
<svg width="548pt" height="692pt"
 viewBox="0.00 0.00 548.00 692.00" xmlns="http://www.w3.org/2000/svg" xmlns:xlink="http://www.w3.org/1999/xlink">
<g id="graph0" class="graph" transform="scale(1 1) rotate(0) translate(4 688)">
<title>snakemake_dag</title>
<polygon fill="white" stroke="none" points="-4,4 -4,-688 544,-688 544,4 -4,4"/>
<!-- 0 -->
<g id="node1" class="node">
<title>0</title>
<path fill="none" stroke="#d8cb56" stroke-width="2" d="M235,-36C235,-36 205,-36 205,-36 199,-36 193,-30 193,-24 193,-24 193,-12 193,-12 193,-6 199,0 205,0 205,0 235,0 235,0 241,0 247,-6 247,-12 247,-12 247,-24 247,-24 247,-30 241,-36 235,-36"/>
<text xml:space="preserve" text-anchor="middle" x="220" y="-14.12" font-family="sans" font-size="10.00">all</text>
</g>
<!-- 1 -->
<g id="node2" class="node">
<title>1</title>
<path fill="none" stroke="#56a9d8" stroke-width="2" d="M160.5,-612C160.5,-612 81.5,-612 81.5,-612 75.5,-612 69.5,-606 69.5,-600 69.5,-600 69.5,-588 69.5,-588 69.5,-582 75.5,-576 81.5,-576 81.5,-576 160.5,-576 160.5,-576 166.5,-576 172.5,-582 172.5,-588 172.5,-588 172.5,-600 172.5,-600 172.5,-606 166.5,-612 160.5,-612"/>
<text xml:space="preserve" text-anchor="middle" x="121" y="-590.12" font-family="sans" font-size="10.00">r01_02_raw_multiqc</text>
</g>
<!-- 1&#45;&gt;0 -->
<g id="edge7" class="edge">
<title>1&#45;&gt;0</title>
<path fill="none" stroke="grey" stroke-width="2" d="M90.47,-575.16C54.62,-551.66 0,-506.71 0,-451 0,-451 0,-451 0,-161 0,-118.33 4.3,-100.56 36,-72 75.8,-36.13 138.42,-24.42 179.35,-20.67"/>
<polygon fill="grey" stroke="grey" stroke-width="2" points="179.35,-24.18 189.05,-19.92 178.82,-17.2 179.35,-24.18"/>
</g>
<!-- 5 -->
<g id="node6" class="node">
<title>5</title>
<path fill="none" stroke="#d88d56" stroke-width="2" d="M191.12,-540C191.12,-540 142.88,-540 142.88,-540 136.88,-540 130.88,-534 130.88,-528 130.88,-528 130.88,-516 130.88,-516 130.88,-510 136.88,-504 142.88,-504 142.88,-504 191.12,-504 191.12,-504 197.12,-504 203.12,-510 203.12,-516 203.12,-516 203.12,-528 203.12,-528 203.12,-534 197.12,-540 191.12,-540"/>
<text xml:space="preserve" text-anchor="middle" x="167" y="-518.12" font-family="sans" font-size="10.00">r02_01_fastp</text>
</g>
<!-- 1&#45;&gt;5 -->
<g id="edge11" class="edge">
<title>1&#45;&gt;5</title>
<path fill="none" stroke="grey" stroke-width="2" d="M132.61,-575.34C137.31,-568.18 142.87,-559.73 148.12,-551.73"/>
<polygon fill="grey" stroke="grey" stroke-width="2" points="151.01,-553.71 153.57,-543.43 145.16,-549.87 151.01,-553.71"/>
</g>
<!-- 2 -->
<g id="node3" class="node">
<title>2</title>
<path fill="none" stroke="#d87556" stroke-width="2" d="M158.25,-684C158.25,-684 83.75,-684 83.75,-684 77.75,-684 71.75,-678 71.75,-672 71.75,-672 71.75,-660 71.75,-660 71.75,-654 77.75,-648 83.75,-648 83.75,-648 158.25,-648 158.25,-648 164.25,-648 170.25,-654 170.25,-660 170.25,-660 170.25,-672 170.25,-672 170.25,-678 164.25,-684 158.25,-684"/>
<text xml:space="preserve" text-anchor="middle" x="121" y="-662.12" font-family="sans" font-size="10.00">r01_01_raw_fastqc</text>
</g>
<!-- 2&#45;&gt;1 -->
<g id="edge8" class="edge">
<title>2&#45;&gt;1</title>
<path fill="none" stroke="grey" stroke-width="2" d="M121,-647.34C121,-640.75 121,-633.08 121,-625.67"/>
<polygon fill="grey" stroke="grey" stroke-width="2" points="124.5,-625.93 121,-615.93 117.5,-625.93 124.5,-625.93"/>
</g>
<!-- 3 -->
<g id="node4" class="node">
<title>3</title>
<path fill="none" stroke="#70d856" stroke-width="2" d="M325.25,-396C325.25,-396 226.75,-396 226.75,-396 220.75,-396 214.75,-390 214.75,-384 214.75,-384 214.75,-372 214.75,-372 214.75,-366 220.75,-360 226.75,-360 226.75,-360 325.25,-360 325.25,-360 331.25,-360 337.25,-366 337.25,-372 337.25,-372 337.25,-384 337.25,-384 337.25,-390 331.25,-396 325.25,-396"/>
<text xml:space="preserve" text-anchor="middle" x="276" y="-374.12" font-family="sans" font-size="10.00">r02_03_trimmed_multiqc</text>
</g>
<!-- 3&#45;&gt;0 -->
<g id="edge4" class="edge">
<title>3&#45;&gt;0</title>
<path fill="none" stroke="grey" stroke-width="2" d="M338.23,-370.75C416.28,-359.08 540,-326.21 540,-235 540,-235 540,-235 540,-161 540,-115.85 527.48,-98.61 491,-72 454.77,-45.56 326.73,-29.46 260.44,-22.71"/>
<polygon fill="grey" stroke="grey" stroke-width="2" points="260.98,-19.24 250.68,-21.74 260.29,-26.21 260.98,-19.24"/>
</g>
<!-- 8 -->
<g id="node9" class="node">
<title>8</title>
<path fill="none" stroke="#56d892" stroke-width="2" d="M260,-324C260,-324 202,-324 202,-324 196,-324 190,-318 190,-312 190,-312 190,-300 190,-300 190,-294 196,-288 202,-288 202,-288 260,-288 260,-288 266,-288 272,-294 272,-300 272,-300 272,-312 272,-312 272,-318 266,-324 260,-324"/>
<text xml:space="preserve" text-anchor="middle" x="231" y="-302.12" font-family="sans" font-size="10.00">r04_01_spades</text>
</g>
<!-- 3&#45;&gt;8 -->
<g id="edge16" class="edge">
<title>3&#45;&gt;8</title>
<path fill="none" stroke="grey" stroke-width="2" d="M264.64,-359.34C260.04,-352.18 254.61,-343.73 249.47,-335.73"/>
<polygon fill="grey" stroke="grey" stroke-width="2" points="252.5,-333.97 244.15,-327.45 246.61,-337.75 252.5,-333.97"/>
</g>
<!-- 4 -->
<g id="node5" class="node">
<title>4</title>
<path fill="none" stroke="#afd856" stroke-width="2" d="M322,-468C322,-468 228,-468 228,-468 222,-468 216,-462 216,-456 216,-456 216,-444 216,-444 216,-438 222,-432 228,-432 228,-432 322,-432 322,-432 328,-432 334,-438 334,-444 334,-444 334,-456 334,-456 334,-462 328,-468 322,-468"/>
<text xml:space="preserve" text-anchor="middle" x="275" y="-446.12" font-family="sans" font-size="10.00">r02_02_trimmed_fastqc</text>
</g>
<!-- 4&#45;&gt;3 -->
<g id="edge9" class="edge">
<title>4&#45;&gt;3</title>
<path fill="none" stroke="grey" stroke-width="2" d="M275.25,-431.34C275.35,-424.75 275.46,-417.08 275.56,-409.67"/>
<polygon fill="grey" stroke="grey" stroke-width="2" points="279.06,-409.98 275.7,-399.93 272.06,-409.88 279.06,-409.98"/>
</g>
<!-- 5&#45;&gt;4 -->
<g id="edge10" class="edge">
<title>5&#45;&gt;4</title>
<path fill="none" stroke="grey" stroke-width="2" d="M194.53,-503.15C207.35,-494.84 222.82,-484.82 236.75,-475.79"/>
<polygon fill="grey" stroke="grey" stroke-width="2" points="238.49,-478.83 244.98,-470.46 234.68,-472.96 238.49,-478.83"/>
</g>
<!-- 6 -->
<g id="node7" class="node">
<title>6</title>
<path fill="none" stroke="#d85656" stroke-width="2" d="M146.5,-396C146.5,-396 85.5,-396 85.5,-396 79.5,-396 73.5,-390 73.5,-384 73.5,-384 73.5,-372 73.5,-372 73.5,-366 79.5,-360 85.5,-360 85.5,-360 146.5,-360 146.5,-360 152.5,-360 158.5,-366 158.5,-372 158.5,-372 158.5,-384 158.5,-384 158.5,-390 152.5,-396 146.5,-396"/>
<text xml:space="preserve" text-anchor="middle" x="116" y="-374.12" font-family="sans" font-size="10.00">r03_01_kraken2</text>
</g>
<!-- 5&#45;&gt;6 -->
<g id="edge12" class="edge">
<title>5&#45;&gt;6</title>
<path fill="none" stroke="grey" stroke-width="2" d="M160.54,-503.02C152.03,-479.33 136.96,-437.35 126.73,-408.86"/>
<polygon fill="grey" stroke="grey" stroke-width="2" points="130.1,-407.92 123.43,-399.69 123.52,-410.28 130.1,-407.92"/>
</g>
<!-- 5&#45;&gt;8 -->
<g id="edge15" class="edge">
<title>5&#45;&gt;8</title>
<path fill="none" stroke="grey" stroke-width="2" d="M170.07,-503.27C175.54,-473.25 188.11,-410.72 206,-360 208.77,-352.16 212.31,-343.93 215.86,-336.35"/>
<polygon fill="grey" stroke="grey" stroke-width="2" points="218.94,-338.01 220.18,-327.49 212.65,-334.94 218.94,-338.01"/>
</g>
<!-- 6&#45;&gt;0 -->
<g id="edge1" class="edge">
<title>6&#45;&gt;0</title>
<path fill="none" stroke="grey" stroke-width="2" d="M98.3,-359C75.29,-333.61 38,-284.79 38,-235 38,-235 38,-235 38,-161 38,-120.14 33.12,-101.87 61,-72 91.77,-39.04 143.55,-26.56 179.63,-21.85"/>
<polygon fill="grey" stroke="grey" stroke-width="2" points="179.59,-25.37 189.14,-20.78 178.81,-18.42 179.59,-25.37"/>
</g>
<!-- 6&#45;&gt;8 -->
<g id="edge14" class="edge">
<title>6&#45;&gt;8</title>
<path fill="none" stroke="grey" stroke-width="2" d="M145.32,-359.15C159.1,-350.76 175.76,-340.62 190.71,-331.52"/>
<polygon fill="grey" stroke="grey" stroke-width="2" points="192.43,-334.58 199.15,-326.39 188.79,-328.6 192.43,-334.58"/>
</g>
<!-- 7 -->
<g id="node8" class="node">
<title>7</title>
<path fill="none" stroke="#d8ac56" stroke-width="2" d="M296.88,-252C296.88,-252 241.12,-252 241.12,-252 235.12,-252 229.12,-246 229.12,-240 229.12,-240 229.12,-228 229.12,-228 229.12,-222 235.12,-216 241.12,-216 241.12,-216 296.88,-216 296.88,-216 302.88,-216 308.88,-222 308.88,-228 308.88,-228 308.88,-240 308.88,-240 308.88,-246 302.88,-252 296.88,-252"/>
<text xml:space="preserve" text-anchor="middle" x="269" y="-230.12" font-family="sans" font-size="10.00">r06_01_prokka</text>
</g>
<!-- 7&#45;&gt;0 -->
<g id="edge2" class="edge">
<title>7&#45;&gt;0</title>
<path fill="none" stroke="grey" stroke-width="2" d="M256.55,-215.2C250.24,-205.28 243.08,-192.46 239,-180 224.68,-136.23 220.9,-82.64 220.04,-49.66"/>
<polygon fill="grey" stroke="grey" stroke-width="2" points="223.54,-49.85 219.88,-39.91 216.55,-49.97 223.54,-49.85"/>
</g>
<!-- 13 -->
<g id="node14" class="node">
<title>13</title>
<path fill="none" stroke="#56d873" stroke-width="2" d="M367.75,-180C367.75,-180 260.25,-180 260.25,-180 254.25,-180 248.25,-174 248.25,-168 248.25,-168 248.25,-156 248.25,-156 248.25,-150 254.25,-144 260.25,-144 260.25,-144 367.75,-144 367.75,-144 373.75,-144 379.75,-150 379.75,-156 379.75,-156 379.75,-168 379.75,-168 379.75,-174 373.75,-180 367.75,-180"/>
<text xml:space="preserve" text-anchor="middle" x="314" y="-158.12" font-family="sans" font-size="10.00">r08_00_prokka_reports_txt</text>
</g>
<!-- 7&#45;&gt;13 -->
<g id="edge21" class="edge">
<title>7&#45;&gt;13</title>
<path fill="none" stroke="grey" stroke-width="2" d="M280.36,-215.34C284.96,-208.18 290.39,-199.73 295.53,-191.73"/>
<polygon fill="grey" stroke="grey" stroke-width="2" points="298.39,-193.75 300.85,-183.45 292.5,-189.97 298.39,-193.75"/>
</g>
<!-- 15 -->
<g id="node16" class="node">
<title>15</title>
<path fill="none" stroke="#5692d8" stroke-width="2" d="M500.12,-180C500.12,-180 409.88,-180 409.88,-180 403.88,-180 397.88,-174 397.88,-168 397.88,-168 397.88,-156 397.88,-156 397.88,-150 403.88,-144 409.88,-144 409.88,-144 500.12,-144 500.12,-144 506.12,-144 512.12,-150 512.12,-156 512.12,-156 512.12,-168 512.12,-168 512.12,-174 506.12,-180 500.12,-180"/>
<text xml:space="preserve" text-anchor="middle" x="455" y="-158.12" font-family="sans" font-size="10.00">r09_01_prepare_circos</text>
</g>
<!-- 7&#45;&gt;15 -->
<g id="edge23" class="edge">
<title>7&#45;&gt;15</title>
<path fill="none" stroke="grey" stroke-width="2" d="M309.82,-217.64C334.88,-208.21 367.41,-195.96 395.32,-185.46"/>
<polygon fill="grey" stroke="grey" stroke-width="2" points="396.41,-188.79 404.54,-181.99 393.95,-182.24 396.41,-188.79"/>
</g>
<!-- 8&#45;&gt;7 -->
<g id="edge13" class="edge">
<title>8&#45;&gt;7</title>
<path fill="none" stroke="grey" stroke-width="2" d="M240.59,-287.34C244.39,-280.34 248.85,-272.12 253.11,-264.28"/>
<polygon fill="grey" stroke="grey" stroke-width="2" points="256.14,-266.02 257.84,-255.56 249.99,-262.68 256.14,-266.02"/>
</g>
<!-- 11 -->
<g id="node12" class="node">
<title>11</title>
<path fill="none" stroke="#59d856" stroke-width="2" d="M176.25,-252C176.25,-252 125.75,-252 125.75,-252 119.75,-252 113.75,-246 113.75,-240 113.75,-240 113.75,-228 113.75,-228 113.75,-222 119.75,-216 125.75,-216 125.75,-216 176.25,-216 176.25,-216 182.25,-216 188.25,-222 188.25,-228 188.25,-228 188.25,-240 188.25,-240 188.25,-246 182.25,-252 176.25,-252"/>
<text xml:space="preserve" text-anchor="middle" x="151" y="-230.12" font-family="sans" font-size="10.00">r05_01_quast</text>
</g>
<!-- 8&#45;&gt;11 -->
<g id="edge19" class="edge">
<title>8&#45;&gt;11</title>
<path fill="none" stroke="grey" stroke-width="2" d="M210.81,-287.34C201.79,-279.44 190.96,-269.96 181.01,-261.26"/>
<polygon fill="grey" stroke="grey" stroke-width="2" points="183.57,-258.85 173.74,-254.9 178.96,-264.11 183.57,-258.85"/>
</g>
<!-- 8&#45;&gt;15 -->
<g id="edge24" class="edge">
<title>8&#45;&gt;15</title>
<path fill="none" stroke="grey" stroke-width="2" d="M260.93,-287.06C277.77,-276.89 299.14,-263.87 318,-252 351.76,-230.76 389.77,-206 417.17,-187.99"/>
<polygon fill="grey" stroke="grey" stroke-width="2" points="418.9,-191.05 425.33,-182.63 415.05,-185.2 418.9,-191.05"/>
</g>
<!-- 9 -->
<g id="node10" class="node">
<title>9</title>
<path fill="none" stroke="#56d8a9" stroke-width="2" d="M178.12,-108C178.12,-108 81.88,-108 81.88,-108 75.88,-108 69.88,-102 69.88,-96 69.88,-96 69.88,-84 69.88,-84 69.88,-78 75.88,-72 81.88,-72 81.88,-72 178.12,-72 178.12,-72 184.12,-72 190.12,-78 190.12,-84 190.12,-84 190.12,-96 190.12,-96 190.12,-102 184.12,-108 178.12,-108"/>
<text xml:space="preserve" text-anchor="middle" x="130" y="-86.12" font-family="sans" font-size="10.00">r07_01_quast_summary</text>
</g>
<!-- 9&#45;&gt;0 -->
<g id="edge5" class="edge">
<title>9&#45;&gt;0</title>
<path fill="none" stroke="grey" stroke-width="2" d="M152.71,-71.34C163.08,-63.27 175.55,-53.57 186.93,-44.72"/>
<polygon fill="grey" stroke="grey" stroke-width="2" points="188.85,-47.66 194.59,-38.76 184.55,-42.14 188.85,-47.66"/>
</g>
<!-- 10 -->
<g id="node11" class="node">
<title>10</title>
<path fill="none" stroke="#8fd856" stroke-width="2" d="M180.12,-180C180.12,-180 77.88,-180 77.88,-180 71.88,-180 65.88,-174 65.88,-168 65.88,-168 65.88,-156 65.88,-156 65.88,-150 71.88,-144 77.88,-144 77.88,-144 180.12,-144 180.12,-144 186.12,-144 192.12,-150 192.12,-156 192.12,-156 192.12,-168 192.12,-168 192.12,-174 186.12,-180 180.12,-180"/>
<text xml:space="preserve" text-anchor="middle" x="129" y="-158.12" font-family="sans" font-size="10.00">r07_00_quast_reports_txt</text>
</g>
<!-- 10&#45;&gt;9 -->
<g id="edge17" class="edge">
<title>10&#45;&gt;9</title>
<path fill="none" stroke="grey" stroke-width="2" d="M129.25,-143.34C129.35,-136.75 129.46,-129.08 129.56,-121.67"/>
<polygon fill="grey" stroke="grey" stroke-width="2" points="133.06,-121.98 129.7,-111.93 126.06,-121.88 133.06,-121.98"/>
</g>
<!-- 11&#45;&gt;10 -->
<g id="edge18" class="edge">
<title>11&#45;&gt;10</title>
<path fill="none" stroke="grey" stroke-width="2" d="M145.45,-215.34C143.33,-208.59 140.85,-200.69 138.46,-193.11"/>
<polygon fill="grey" stroke="grey" stroke-width="2" points="141.87,-192.28 135.53,-183.79 135.19,-194.38 141.87,-192.28"/>
</g>
<!-- 12 -->
<g id="node13" class="node">
<title>12</title>
<path fill="none" stroke="#56c9d8" stroke-width="2" d="M363.75,-108C363.75,-108 262.25,-108 262.25,-108 256.25,-108 250.25,-102 250.25,-96 250.25,-96 250.25,-84 250.25,-84 250.25,-78 256.25,-72 262.25,-72 262.25,-72 363.75,-72 363.75,-72 369.75,-72 375.75,-78 375.75,-84 375.75,-84 375.75,-96 375.75,-96 375.75,-102 369.75,-108 363.75,-108"/>
<text xml:space="preserve" text-anchor="middle" x="313" y="-86.12" font-family="sans" font-size="10.00">r08_01_prokka_summary</text>
</g>
<!-- 12&#45;&gt;0 -->
<g id="edge6" class="edge">
<title>12&#45;&gt;0</title>
<path fill="none" stroke="grey" stroke-width="2" d="M289.53,-71.34C278.82,-63.27 265.93,-53.57 254.17,-44.72"/>
<polygon fill="grey" stroke="grey" stroke-width="2" points="256.3,-41.94 246.2,-38.72 252.09,-47.53 256.3,-41.94"/>
</g>
<!-- 13&#45;&gt;12 -->
<g id="edge20" class="edge">
<title>13&#45;&gt;12</title>
<path fill="none" stroke="grey" stroke-width="2" d="M313.75,-143.34C313.65,-136.75 313.54,-129.08 313.44,-121.67"/>
<polygon fill="grey" stroke="grey" stroke-width="2" points="316.94,-121.88 313.3,-111.93 309.94,-121.98 316.94,-121.88"/>
</g>
<!-- 14 -->
<g id="node15" class="node">
<title>14</title>
<path fill="none" stroke="#c6d856" stroke-width="2" d="M470.38,-108C470.38,-108 417.62,-108 417.62,-108 411.62,-108 405.62,-102 405.62,-96 405.62,-96 405.62,-84 405.62,-84 405.62,-78 411.62,-72 417.62,-72 417.62,-72 470.38,-72 470.38,-72 476.38,-72 482.38,-78 482.38,-84 482.38,-84 482.38,-96 482.38,-96 482.38,-102 476.38,-108 470.38,-108"/>
<text xml:space="preserve" text-anchor="middle" x="444" y="-86.12" font-family="sans" font-size="10.00">r09_02_circos</text>
</g>
<!-- 14&#45;&gt;0 -->
<g id="edge3" class="edge">
<title>14&#45;&gt;0</title>
<path fill="none" stroke="grey" stroke-width="2" d="M404.73,-76.73C364.11,-64.03 301,-44.31 260.08,-31.53"/>
<polygon fill="grey" stroke="grey" stroke-width="2" points="261.37,-28.26 250.78,-28.62 259.28,-34.94 261.37,-28.26"/>
</g>
<!-- 15&#45;&gt;14 -->
<g id="edge22" class="edge">
<title>15&#45;&gt;14</title>
<path fill="none" stroke="grey" stroke-width="2" d="M452.22,-143.34C451.19,-136.75 449.98,-129.08 448.82,-121.67"/>
<polygon fill="grey" stroke="grey" stroke-width="2" points="452.29,-121.23 447.28,-111.89 445.38,-122.31 452.29,-121.23"/>
</g>
</g>
</svg>
